<?xml version="1.0" encoding="UTF-8" standalone="no"?>
<!-- Created with Inkscape (http://www.inkscape.org/) -->
<svg
   xmlns:dc="http://purl.org/dc/elements/1.1/"
   xmlns:cc="http://creativecommons.org/ns#"
   xmlns:rdf="http://www.w3.org/1999/02/22-rdf-syntax-ns#"
   xmlns:svg="http://www.w3.org/2000/svg"
   xmlns="http://www.w3.org/2000/svg"
   xmlns:xlink="http://www.w3.org/1999/xlink"
   xmlns:sodipodi="http://sodipodi.sourceforge.net/DTD/sodipodi-0.dtd"
   xmlns:inkscape="http://www.inkscape.org/namespaces/inkscape"
   width="83"
   height="150"
   id="svg2760"
   sodipodi:version="0.32"
   inkscape:version="0.46"
   sodipodi:docname="comet2.svg"
   inkscape:output_extension="org.inkscape.output.svg.inkscape"
   version="1.0">
  <defs
     id="defs2762">
    <radialGradient
       inkscape:collect="always"
       xlink:href="#linearGradient3853"
       id="radialGradient2427"
       gradientUnits="userSpaceOnUse"
       gradientTransform="matrix(5.0372302e-2,-0.3497757,0.3566224,5.1358303e-2,23.565601,370.31782)"
       cx="154.26961"
       cy="292.34778"
       fx="154.26961"
       fy="292.34778"
       r="29.364538" />
    <radialGradient
       inkscape:collect="always"
       xlink:href="#linearGradient3853"
       id="radialGradient2425"
       gradientUnits="userSpaceOnUse"
       gradientTransform="matrix(4.8037414e-2,-0.4413391,0.474073,5.1600295e-2,-10.410613,384.37252)"
       cx="138.58928"
       cy="334.42172"
       fx="138.58928"
       fy="334.42172"
       r="29.364538" />
    <radialGradient
       inkscape:collect="always"
       xlink:href="#linearGradient3807"
       id="radialGradient2423"
       gradientUnits="userSpaceOnUse"
       gradientTransform="matrix(4.5139498e-7,-1.5619594,1.0072796,-4.6966364e-8,-168.92431,562.79668)"
       cx="144.92911"
       cy="310.34058"
       fx="144.92911"
       fy="310.34058"
       r="29.364538" />
    <linearGradient
       id="linearGradient3853">
      <stop
         id="stop3855"
         offset="0"
         style="stop-color:#02effe;stop-opacity:1;" />
      <stop
         id="stop3857"
         offset="1"
         style="stop-color:#02effe;stop-opacity:0;" />
    </linearGradient>
    <linearGradient
       id="linearGradient3807">
      <stop
         style="stop-color:#043ce2;stop-opacity:1;"
         offset="0"
         id="stop3809" />
      <stop
         style="stop-color:#02effe;stop-opacity:1;"
         offset="1"
         id="stop3811" />
    </linearGradient>
    <inkscape:perspective
       sodipodi:type="inkscape:persp3d"
       inkscape:vp_x="0 : 526.18109 : 1"
       inkscape:vp_y="0 : 1000 : 0"
       inkscape:vp_z="744.09448 : 526.18109 : 1"
       inkscape:persp3d-origin="372.04724 : 350.78739 : 1"
       id="perspective2768" />
    <inkscape:perspective
       id="perspective2777"
       inkscape:persp3d-origin="372.04724 : 350.78739 : 1"
       inkscape:vp_z="744.09448 : 526.18109 : 1"
       inkscape:vp_y="0 : 1000 : 0"
       inkscape:vp_x="0 : 526.18109 : 1"
       sodipodi:type="inkscape:persp3d" />
    <inkscape:perspective
       id="perspective2798"
       inkscape:persp3d-origin="372.04724 : 350.78739 : 1"
       inkscape:vp_z="744.09448 : 526.18109 : 1"
       inkscape:vp_y="0 : 1000 : 0"
       inkscape:vp_x="0 : 526.18109 : 1"
       sodipodi:type="inkscape:persp3d" />
    <inkscape:perspective
       id="perspective2827"
       inkscape:persp3d-origin="372.04724 : 350.78739 : 1"
       inkscape:vp_z="744.09448 : 526.18109 : 1"
       inkscape:vp_y="0 : 1000 : 0"
       inkscape:vp_x="0 : 526.18109 : 1"
       sodipodi:type="inkscape:persp3d" />
    <inkscape:perspective
       id="perspective2846"
       inkscape:persp3d-origin="372.04724 : 350.78739 : 1"
       inkscape:vp_z="744.09448 : 526.18109 : 1"
       inkscape:vp_y="0 : 1000 : 0"
       inkscape:vp_x="0 : 526.18109 : 1"
       sodipodi:type="inkscape:persp3d" />
    <inkscape:perspective
       id="perspective2975"
       inkscape:persp3d-origin="372.04724 : 350.78739 : 1"
       inkscape:vp_z="744.09448 : 526.18109 : 1"
       inkscape:vp_y="0 : 1000 : 0"
       inkscape:vp_x="0 : 526.18109 : 1"
       sodipodi:type="inkscape:persp3d" />
    <radialGradient
       inkscape:collect="always"
       xlink:href="#linearGradient3807"
       id="radialGradient3813"
       cx="144.92911"
       cy="310.34058"
       fx="144.92911"
       fy="310.34058"
       r="29.364538"
       gradientTransform="matrix(4.5139498e-7,-1.5619594,1.0072796,-4.6966364e-8,-169.02097,562.53732)"
       gradientUnits="userSpaceOnUse" />
    <radialGradient
       inkscape:collect="always"
       xlink:href="#linearGradient3807"
       id="radialGradient3835"
       cx="144.35086"
       cy="155.27568"
       fx="144.35086"
       fy="155.27568"
       r="27.290644"
       gradientTransform="matrix(6.5369071e-2,-1.5478073,1.1263373,4.7568807e-2,-36.106896,386.9586)"
       gradientUnits="userSpaceOnUse" />
    <radialGradient
       inkscape:collect="always"
       xlink:href="#linearGradient3807"
       id="radialGradient3843"
       cx="148.23933"
       cy="152.55739"
       fx="148.23933"
       fy="152.55739"
       r="29.5"
       gradientTransform="matrix(-6.9785255e-3,-1.4738773,0.9781417,-4.6313033e-3,-7.6730836,393.48501)"
       gradientUnits="userSpaceOnUse" />
    <radialGradient
       inkscape:collect="always"
       xlink:href="#linearGradient3853"
       id="radialGradient3859"
       gradientUnits="userSpaceOnUse"
       gradientTransform="matrix(-2.1865995e-2,-0.3925554,0.4163901,-2.3193643e-2,78.834786,233.00173)"
       cx="151.06033"
       cy="148.78595"
       fx="151.06033"
       fy="148.78595"
       r="29.5" />
    <radialGradient
       inkscape:collect="always"
       xlink:href="#linearGradient3853"
       id="radialGradient3871"
       gradientUnits="userSpaceOnUse"
       gradientTransform="matrix(-2.6153001e-2,-0.306687,0.3474167,-2.9626276e-2,89.30844,225.70488)"
       cx="95.90609"
       cy="145.88962"
       fx="95.90609"
       fy="145.88962"
       r="29.5" />
    <radialGradient
       inkscape:collect="always"
       xlink:href="#linearGradient3853"
       id="radialGradient3875"
       gradientUnits="userSpaceOnUse"
       gradientTransform="matrix(-2.568147e-2,-0.257688,0.2410475,-2.4023067e-2,108.75833,215.23282)"
       cx="186.69681"
       cy="185.16139"
       fx="186.69681"
       fy="185.16139"
       r="29.5" />
    <radialGradient
       inkscape:collect="always"
       xlink:href="#linearGradient3853"
       id="radialGradient3879"
       gradientUnits="userSpaceOnUse"
       gradientTransform="matrix(2.3179351e-2,-0.3540112,0.3369425,2.2061733e-2,92.327685,218.44476)"
       cx="148.70107"
       cy="163.15218"
       fx="148.70107"
       fy="163.15218"
       r="27.290644" />
    <radialGradient
       inkscape:collect="always"
       xlink:href="#linearGradient3853"
       id="radialGradient3883"
       gradientUnits="userSpaceOnUse"
       gradientTransform="matrix(4.0124317e-3,-0.3725261,0.3931593,4.2346382e-3,86.97858,222.76717)"
       cx="106.78394"
       cy="131.55884"
       fx="106.78394"
       fy="131.55884"
       r="27.290644" />
    <radialGradient
       inkscape:collect="always"
       xlink:href="#linearGradient3853"
       id="radialGradient3893"
       gradientUnits="userSpaceOnUse"
       gradientTransform="matrix(4.8037414e-2,-0.4413391,0.474073,5.1600295e-2,-10.507275,384.11316)"
       cx="138.58928"
       cy="334.42172"
       fx="138.58928"
       fy="334.42172"
       r="29.364538" />
    <radialGradient
       inkscape:collect="always"
       xlink:href="#linearGradient3853"
       id="radialGradient3897"
       gradientUnits="userSpaceOnUse"
       gradientTransform="matrix(5.0372302e-2,-0.3497757,0.3566224,5.1358303e-2,23.46894,370.05846)"
       cx="154.26961"
       cy="292.34778"
       fx="154.26961"
       fy="292.34778"
       r="29.364538" />
  </defs>
  <sodipodi:namedview
     id="base"
     pagecolor="#ffffff"
     bordercolor="#666666"
     borderopacity="1.0"
     inkscape:pageopacity="0.0"
     inkscape:pageshadow="2"
     inkscape:zoom="3.6097347"
     inkscape:cx="42.904775"
     inkscape:cy="74.550001"
     inkscape:document-units="px"
     inkscape:current-layer="layer1"
     showgrid="false"
     showguides="true"
     inkscape:guide-bbox="true"
     inkscape:window-width="1272"
     inkscape:window-height="734"
     inkscape:window-x="0"
     inkscape:window-y="40" />
  <metadata
     id="metadata2765">
    <rdf:RDF>
      <cc:Work
         rdf:about="">
        <dc:format>image/svg+xml</dc:format>
        <dc:type
           rdf:resource="http://purl.org/dc/dcmitype/StillImage" />
      </cc:Work>
    </rdf:RDF>
  </metadata>
  <g
     inkscape:label="Calque 1"
     inkscape:groupmode="layer"
     id="layer1"
     transform="translate(-275.33361,-209.6926)">
    <g
       id="lay2"
       transform="translate(173.02267,-7.4289617)"
       inkscape:export-xdpi="90"
       inkscape:export-ydpi="90"
       inkscape:label="#lay2">
      <path
         style="fill:url(#radialGradient2423);fill-opacity:1"
         d="M 140.21428,365.8622 C 140.21428,365.3122 138.84193,364.8622 137.16462,364.8622 C 131.52784,364.8622 125.24903,359.84778 118.86683,350.24909 C 116.5113,346.70643 116.10827,345.02249 115.96084,338.10737 C 115.78811,330.00592 116.85516,326.8622 119.77771,326.8622 C 122.37604,326.8622 122.19467,324.93341 119.1757,320.46014 C 117.48839,317.96002 115.6818,315.65114 115.16107,315.32931 C 114.64034,315.00748 114.21428,310.93678 114.21428,306.28331 C 114.21428,298.96987 114.55502,297.28269 116.72683,293.84233 C 118.87253,290.44331 119.74854,289.8622 122.72683,289.8622 C 126.5263,289.8622 127.08387,291.1284 124.68248,294.30333 C 123.87497,295.37095 123.21428,298.31845 123.21428,300.85333 C 123.21428,303.38821 122.76799,305.90848 122.22254,306.45394 C 121.29059,307.38589 122.19424,311.69048 124.19308,315.84072 C 125.00943,317.53574 131.31126,319.12385 132.52061,317.93932 C 132.96409,317.50494 132.17659,315.78243 130.77061,314.11151 C 127.68477,310.4442 127.43902,305.87378 130.19362,303.38089 C 132.10345,301.65252 132.23526,301.66655 133.94679,303.78019 L 135.72062,305.97077 L 137.96745,303.87753 C 139.75006,302.21678 140.21428,300.6904 140.21428,296.48991 C 140.21428,290.68681 139.5724,289.3201 137.61133,290.94764 C 136.9035,291.53509 135.28709,291.86868 134.01932,291.68896 C 132.23435,291.43592 131.64358,290.62893 131.40092,288.1122 C 131.1463,285.47141 131.44529,284.8622 132.99593,284.8622 C 134.04554,284.8622 135.70919,285.75159 136.69294,286.83862 C 138.7964,289.16292 140.21428,288.63426 140.21428,285.52569 C 140.21428,284.30553 140.84428,282.40776 141.61429,281.30842 C 142.61051,279.88611 142.95733,276.63661 142.81677,270.04174 C 142.56778,258.35965 144.82193,218.92122 145.79419,217.94896 C 146.98698,216.75617 149.15437,221.89963 149.18248,225.98976 C 149.20213,228.85018 149.78709,231.0927 150.71428,231.8622 C 151.84148,232.7977 152.21428,235.31343 152.21428,241.98465 C 152.21428,250.58151 152.14156,250.8622 149.91428,250.8622 C 145.63888,250.8622 145.21428,252.39739 145.21428,267.8554 L 145.21428,282.44861 L 148.46428,283.4054 C 151.63509,284.33889 151.72154,284.51479 152.01232,290.62457 C 152.22311,295.05377 151.8572,297.53391 150.76232,299.09708 C 148.41414,302.44957 148.67595,312.06504 151.17703,314.32849 C 152.25655,315.30544 153.75678,315.868 154.51087,315.57863 C 155.26497,315.28926 157.56898,311.63821 159.63091,307.4652 C 161.69283,303.29218 163.86087,299.58062 164.44878,299.21727 C 167.60711,297.26531 169.57887,308.77315 167.0406,314.34404 C 166.03674,316.54728 166.18009,317.31369 168.03141,319.64109 C 171.58793,324.11219 173.39328,329.06844 172.84732,332.8622 C 171.6796,340.97628 170.27907,345.73078 167.25047,351.8622 C 163.14212,360.17961 158.73603,364.8622 155.01811,364.8622 C 153.476,364.8622 152.21428,365.3122 152.21428,365.8622 C 152.21428,366.41776 149.54761,366.8622 146.21428,366.8622 C 142.88095,366.8622 140.21428,366.41776 140.21428,365.8622 z M 157.21428,289.51719 C 157.21428,284.76251 159.91503,281.14965 162.67703,282.20953 C 164.92089,283.07058 164.716,290.09818 162.38554,292.20721 C 159.00272,295.26862 157.21428,294.3383 157.21428,289.51719 z"
         id="path2956" />
      <path
         id="path3891"
         d="M 140.21428,365.8622 C 140.21428,365.3122 138.84193,364.8622 137.16462,364.8622 C 131.52784,364.8622 125.24903,359.84778 118.86683,350.24909 C 116.5113,346.70643 116.10827,345.02249 115.96084,338.10737 C 115.78811,330.00592 116.85516,326.8622 119.77771,326.8622 C 122.37604,326.8622 122.19467,324.93341 119.1757,320.46014 C 117.48839,317.96002 115.6818,315.65114 115.16107,315.32931 C 114.64034,315.00748 114.21428,310.93678 114.21428,306.28331 C 114.21428,298.96987 114.55502,297.28269 116.72683,293.84233 C 118.87253,290.44331 119.74854,289.8622 122.72683,289.8622 C 126.5263,289.8622 127.08387,291.1284 124.68248,294.30333 C 123.87497,295.37095 123.21428,298.31845 123.21428,300.85333 C 123.21428,303.38821 122.76799,305.90848 122.22254,306.45394 C 121.29059,307.38589 122.19424,311.69048 124.19308,315.84072 C 125.00943,317.53574 131.31126,319.12385 132.52061,317.93932 C 132.96409,317.50494 132.17659,315.78243 130.77061,314.11151 C 127.68477,310.4442 127.43902,305.87378 130.19362,303.38089 C 132.10345,301.65252 132.23526,301.66655 133.94679,303.78019 L 135.72062,305.97077 L 137.96745,303.87753 C 139.75006,302.21678 140.21428,300.6904 140.21428,296.48991 C 140.21428,290.68681 139.5724,289.3201 137.61133,290.94764 C 136.9035,291.53509 135.28709,291.86868 134.01932,291.68896 C 132.23435,291.43592 131.64358,290.62893 131.40092,288.1122 C 131.1463,285.47141 131.44529,284.8622 132.99593,284.8622 C 134.04554,284.8622 135.70919,285.75159 136.69294,286.83862 C 138.7964,289.16292 140.21428,288.63426 140.21428,285.52569 C 140.21428,284.30553 140.84428,282.40776 141.61429,281.30842 C 142.61051,279.88611 142.95733,276.63661 142.81677,270.04174 C 142.56778,258.35965 144.82193,218.92122 145.79419,217.94896 C 146.98698,216.75617 149.15437,221.89963 149.18248,225.98976 C 149.20213,228.85018 149.78709,231.0927 150.71428,231.8622 C 151.84148,232.7977 152.21428,235.31343 152.21428,241.98465 C 152.21428,250.58151 152.14156,250.8622 149.91428,250.8622 C 145.63888,250.8622 145.21428,252.39739 145.21428,267.8554 L 145.21428,282.44861 L 148.46428,283.4054 C 151.63509,284.33889 151.72154,284.51479 152.01232,290.62457 C 152.22311,295.05377 151.8572,297.53391 150.76232,299.09708 C 148.41414,302.44957 148.67595,312.06504 151.17703,314.32849 C 152.25655,315.30544 153.75678,315.868 154.51087,315.57863 C 155.26497,315.28926 157.56898,311.63821 159.63091,307.4652 C 161.69283,303.29218 163.86087,299.58062 164.44878,299.21727 C 167.60711,297.26531 169.57887,308.77315 167.0406,314.34404 C 166.03674,316.54728 166.18009,317.31369 168.03141,319.64109 C 171.58793,324.11219 173.39328,329.06844 172.84732,332.8622 C 171.6796,340.97628 170.27907,345.73078 167.25047,351.8622 C 163.14212,360.17961 158.73603,364.8622 155.01811,364.8622 C 153.476,364.8622 152.21428,365.3122 152.21428,365.8622 C 152.21428,366.41776 149.54761,366.8622 146.21428,366.8622 C 142.88095,366.8622 140.21428,366.41776 140.21428,365.8622 z M 157.21428,289.51719 C 157.21428,284.76251 159.91503,281.14965 162.67703,282.20953 C 164.92089,283.07058 164.716,290.09818 162.38554,292.20721 C 159.00272,295.26862 157.21428,294.3383 157.21428,289.51719 z"
         style="fill:url(#radialGradient2425);fill-opacity:1" />
      <path
         style="fill:url(#radialGradient2427);fill-opacity:1"
         d="M 140.21428,365.8622 C 140.21428,365.3122 138.84193,364.8622 137.16462,364.8622 C 131.52784,364.8622 125.24903,359.84778 118.86683,350.24909 C 116.5113,346.70643 116.10827,345.02249 115.96084,338.10737 C 115.78811,330.00592 116.85516,326.8622 119.77771,326.8622 C 122.37604,326.8622 122.19467,324.93341 119.1757,320.46014 C 117.48839,317.96002 115.6818,315.65114 115.16107,315.32931 C 114.64034,315.00748 114.21428,310.93678 114.21428,306.28331 C 114.21428,298.96987 114.55502,297.28269 116.72683,293.84233 C 118.87253,290.44331 119.74854,289.8622 122.72683,289.8622 C 126.5263,289.8622 127.08387,291.1284 124.68248,294.30333 C 123.87497,295.37095 123.21428,298.31845 123.21428,300.85333 C 123.21428,303.38821 122.76799,305.90848 122.22254,306.45394 C 121.29059,307.38589 122.19424,311.69048 124.19308,315.84072 C 125.00943,317.53574 131.31126,319.12385 132.52061,317.93932 C 132.96409,317.50494 132.17659,315.78243 130.77061,314.11151 C 127.68477,310.4442 127.43902,305.87378 130.19362,303.38089 C 132.10345,301.65252 132.23526,301.66655 133.94679,303.78019 L 135.72062,305.97077 L 137.96745,303.87753 C 139.75006,302.21678 140.21428,300.6904 140.21428,296.48991 C 140.21428,290.68681 139.5724,289.3201 137.61133,290.94764 C 136.9035,291.53509 135.28709,291.86868 134.01932,291.68896 C 132.23435,291.43592 131.64358,290.62893 131.40092,288.1122 C 131.1463,285.47141 131.44529,284.8622 132.99593,284.8622 C 134.04554,284.8622 135.70919,285.75159 136.69294,286.83862 C 138.7964,289.16292 140.21428,288.63426 140.21428,285.52569 C 140.21428,284.30553 140.84428,282.40776 141.61429,281.30842 C 142.61051,279.88611 142.95733,276.63661 142.81677,270.04174 C 142.56778,258.35965 144.82193,218.92122 145.79419,217.94896 C 146.98698,216.75617 149.15437,221.89963 149.18248,225.98976 C 149.20213,228.85018 149.78709,231.0927 150.71428,231.8622 C 151.84148,232.7977 152.21428,235.31343 152.21428,241.98465 C 152.21428,250.58151 152.14156,250.8622 149.91428,250.8622 C 145.63888,250.8622 145.21428,252.39739 145.21428,267.8554 L 145.21428,282.44861 L 148.46428,283.4054 C 151.63509,284.33889 151.72154,284.51479 152.01232,290.62457 C 152.22311,295.05377 151.8572,297.53391 150.76232,299.09708 C 148.41414,302.44957 148.67595,312.06504 151.17703,314.32849 C 152.25655,315.30544 153.75678,315.868 154.51087,315.57863 C 155.26497,315.28926 157.56898,311.63821 159.63091,307.4652 C 161.69283,303.29218 163.86087,299.58062 164.44878,299.21727 C 167.60711,297.26531 169.57887,308.77315 167.0406,314.34404 C 166.03674,316.54728 166.18009,317.31369 168.03141,319.64109 C 171.58793,324.11219 173.39328,329.06844 172.84732,332.8622 C 171.6796,340.97628 170.27907,345.73078 167.25047,351.8622 C 163.14212,360.17961 158.73603,364.8622 155.01811,364.8622 C 153.476,364.8622 152.21428,365.3122 152.21428,365.8622 C 152.21428,366.41776 149.54761,366.8622 146.21428,366.8622 C 142.88095,366.8622 140.21428,366.41776 140.21428,365.8622 z M 157.21428,289.51719 C 157.21428,284.76251 159.91503,281.14965 162.67703,282.20953 C 164.92089,283.07058 164.716,290.09818 162.38554,292.20721 C 159.00272,295.26862 157.21428,294.3383 157.21428,289.51719 z"
         id="path3895" />
      <path
         style="fill:#000000"
         d="M 140.21428,365.8622 C 140.21428,365.3122 138.84193,364.8622 137.16462,364.8622 C 131.52784,364.8622 125.24903,359.84778 118.86683,350.24909 C 116.5113,346.70643 116.10827,345.02249 115.96084,338.10737 C 115.78811,330.00592 116.85516,326.8622 119.77771,326.8622 C 122.37604,326.8622 122.19467,324.93341 119.1757,320.46014 C 117.48839,317.96002 115.6818,315.65114 115.16107,315.32931 C 114.64034,315.00748 114.21428,310.93678 114.21428,306.28331 C 114.21428,298.96987 114.55502,297.28269 116.72683,293.84233 C 118.87253,290.44331 119.74854,289.8622 122.72683,289.8622 C 125.02235,289.8622 126.21428,290.33302 126.21428,291.23976 C 126.21428,293.22618 123.72814,294.99662 121.91547,294.30103 C 119.27508,293.28782 116.78325,298.42955 116.74668,304.96651 C 116.71076,311.38614 118.5449,314.76943 120.33802,311.59117 C 121.61152,309.33391 123.21428,310.28545 123.21428,313.29877 C 123.21428,316.11844 124.69735,317.38824 128.92551,318.18873 C 133.19483,318.99701 133.76883,317.67469 130.72097,314.05252 C 127.68426,310.44359 127.45761,305.85695 130.19362,303.38089 C 132.10345,301.65252 132.23526,301.66655 133.94679,303.78019 L 135.72062,305.97077 L 137.96745,303.87753 C 139.75006,302.21678 140.21428,300.6904 140.21428,296.48991 C 140.21428,290.68681 139.5724,289.3201 137.61133,290.94764 C 136.9035,291.53509 135.28709,291.86868 134.01932,291.68896 C 132.23435,291.43592 131.64358,290.62893 131.40092,288.1122 C 131.1463,285.47141 131.44529,284.8622 132.99593,284.8622 C 134.04554,284.8622 135.70919,285.75159 136.69294,286.83862 C 138.74621,289.10745 140.21428,288.64836 140.21428,285.73744 C 140.21428,284.63374 140.77678,282.7478 141.46428,281.54646 C 142.22794,280.21203 142.74757,275.27697 142.79983,268.8622 C 143.02915,240.71796 143.19323,237.68825 144.46428,238.12799 C 145.1867,238.37792 145.59069,239.82363 145.42147,241.55334 C 145.24783,243.32809 145.75178,245.0634 146.65963,245.81685 C 148.6098,247.43534 149.0592,246.3227 149.4369,238.9408 C 149.60244,235.70532 150.21828,233.35331 150.96428,233.10747 C 151.90277,232.79819 152.21428,234.95917 152.21428,241.77887 C 152.21428,250.59046 152.14547,250.8622 149.91428,250.8622 C 145.63888,250.8622 145.21428,252.39739 145.21428,267.8554 L 145.21428,282.44861 L 148.46428,283.4054 C 151.63509,284.33889 151.72154,284.51479 152.01232,290.62457 C 152.22311,295.05377 151.8572,297.53391 150.76232,299.09708 C 148.41414,302.44957 148.67595,312.06504 151.17703,314.32849 C 152.25655,315.30544 153.75678,315.868 154.51087,315.57863 C 155.26497,315.28926 157.56898,311.63821 159.63091,307.4652 C 161.69283,303.29218 163.86087,299.58062 164.44878,299.21727 C 167.60711,297.26531 169.57887,308.77315 167.0406,314.34404 C 166.03674,316.54728 166.18009,317.31369 168.03141,319.64109 C 171.58793,324.11219 173.39328,329.06844 172.84732,332.8622 C 171.6796,340.97628 170.27907,345.73078 167.25047,351.8622 C 163.14212,360.17961 158.73603,364.8622 155.01811,364.8622 C 153.476,364.8622 152.21428,365.3122 152.21428,365.8622 C 152.21428,366.41776 149.54761,366.8622 146.21428,366.8622 C 142.88095,366.8622 140.21428,366.41776 140.21428,365.8622 z M 155.21664,360.34633 C 159.04439,358.38933 160.83546,355.96376 164.81856,347.34288 C 167.30682,341.95735 168.63824,337.44964 168.9732,333.27673 C 169.55619,326.01398 168.27916,324.51268 164.8799,328.46456 C 161.57796,332.30328 159.80035,330.8988 160.59774,325.08123 C 160.93827,322.59674 161.57346,320.06858 162.00926,319.46309 C 163.37394,317.56703 166.47762,307.7922 165.89876,307.21335 C 164.91049,306.22508 163.21276,307.93008 161.78678,311.34293 C 158.79958,318.4923 152.57124,321.12409 148.71724,316.86547 C 147.2529,315.24739 146.93963,313.3218 147.06526,306.71118 C 147.15052,302.22452 147.69898,296.77589 148.28405,294.6031 C 149.61537,289.65895 148.89801,287.62611 145.96875,288.04206 C 143.96498,288.3266 143.65043,289.085 143.14012,294.8622 C 142.47893,302.34743 140.74555,308.17639 138.66813,309.9005 C 137.53065,310.84452 136.70023,310.7554 134.75447,309.48049 C 133.39607,308.59043 132.04381,307.8622 131.74946,307.8622 C 130.34545,307.8622 131.53943,310.69485 134.23025,313.74771 C 137.61531,317.5882 137.68278,317.83922 135.9625,320.19185 C 135.19943,321.23541 133.4566,321.85588 131.3894,321.97681 C 129.78474,322.07068 127.98462,321.86354 126.29561,321.31962 C 124.17263,320.63594 123.97948,320.77432 124.71571,322.45146 C 125.7831,324.88303 126.61522,332.8622 125.80141,332.8622 C 125.46356,332.8622 124.26584,332.2997 123.13981,331.6122 C 120.05884,329.73112 118.33282,332.62428 118.95173,338.63225 C 119.50795,344.03173 122.5366,349.82817 127.37847,354.75997 C 134.4335,361.94604 147.11157,364.49018 155.21664,360.34633 z M 151.8095,343.69468 C 149.66941,340.63928 149.8007,338.54646 152.27282,336.30923 C 153.80946,334.91858 154.74324,334.70609 155.95598,335.47107 C 159.13623,337.47711 159.82357,339.6847 158.17991,342.61375 C 156.19566,346.14974 153.81234,346.55414 151.8095,343.69468 z M 132.75795,333.51779 C 131.42095,332.54016 131.09663,331.46708 131.56914,329.58444 C 132.41595,326.21048 136.08211,324.96096 137.88808,327.43078 C 139.6276,329.80971 139.56225,331.37138 137.64285,333.29077 C 135.72544,335.20819 135.10889,335.23684 132.75795,333.51779 z M 120.54713,302.19851 C 121.49722,296.34381 123.21428,295.67665 123.21428,301.1622 C 123.21428,304.8409 122.8599,305.8622 121.58344,305.8622 C 120.26422,305.8622 120.0662,305.16213 120.54713,302.19851 z M 157.21428,289.51719 C 157.21428,284.76251 159.91503,281.14965 162.67703,282.20953 C 164.92089,283.07058 164.716,290.09818 162.38554,292.20721 C 159.00272,295.26862 157.21428,294.3383 157.21428,289.51719 z M 145.88095,225.19553 C 145.02809,224.34268 145.00431,217.8622 145.85404,217.8622 C 147.10485,217.8622 149.15117,221.39729 149.18248,223.6122 C 149.21258,225.74174 147.33,226.64458 145.88095,225.19553 z"
         id="path2954"
         sodipodi:nodetypes="cssssssssssssssssscccsssssssssssssssscccsssssssssssssccssssssssssssssssssssssssccsssccsssccssccssccssc" />
      <path
         transform="translate(-190.41375,15.657364)"
         style="fill:#d40000"
         d="M 347.11368,324.42099 C 347.11368,325.64075 346.28486,327.57772 345.03025,327.57772 C 343.77564,327.57772 343.07307,325.51449 343.07307,324.29473 C 343.07307,323.07497 344.02818,322.02188 345.28279,322.02188 C 346.5374,322.02188 347.11368,323.20123 347.11368,324.42099 z"
         id="path3899"
         sodipodi:nodetypes="csssc" />
      <path
         sodipodi:nodetypes="csssc"
         id="path3902"
         d="M 137.25449,330.16623 C 137.25449,331.38599 136.55194,332.62848 135.29733,332.62848 C 134.04272,332.62848 133.21388,331.25973 133.21388,330.03997 C 133.21388,328.82021 134.16899,327.76712 135.4236,327.76712 C 136.67821,327.76712 137.25449,328.94647 137.25449,330.16623 z"
         style="fill:#d40000" />
    </g>
  </g>
</svg>
