<?xml version="1.0" encoding="UTF-8" standalone="no"?>
<!-- Created with Inkscape (http://www.inkscape.org/) -->
<svg
   xmlns:dc="http://purl.org/dc/elements/1.1/"
   xmlns:cc="http://creativecommons.org/ns#"
   xmlns:rdf="http://www.w3.org/1999/02/22-rdf-syntax-ns#"
   xmlns:svg="http://www.w3.org/2000/svg"
   xmlns="http://www.w3.org/2000/svg"
   xmlns:xlink="http://www.w3.org/1999/xlink"
   xmlns:sodipodi="http://sodipodi.sourceforge.net/DTD/sodipodi-0.dtd"
   xmlns:inkscape="http://www.inkscape.org/namespaces/inkscape"
   width="83"
   height="150"
   id="svg2760"
   sodipodi:version="0.32"
   inkscape:version="0.46"
   sodipodi:docname="comet3.svg"
   inkscape:output_extension="org.inkscape.output.svg.inkscape"
   version="1.0">
  <defs
     id="defs2762">
    <radialGradient
       inkscape:collect="always"
       xlink:href="#linearGradient3853"
       id="radialGradient2427"
       gradientUnits="userSpaceOnUse"
       gradientTransform="matrix(5.0372302e-2,-0.3497757,0.3566224,5.1358303e-2,23.565601,370.31782)"
       cx="154.26961"
       cy="292.34778"
       fx="154.26961"
       fy="292.34778"
       r="29.364538" />
    <radialGradient
       inkscape:collect="always"
       xlink:href="#linearGradient3853"
       id="radialGradient2425"
       gradientUnits="userSpaceOnUse"
       gradientTransform="matrix(4.8037414e-2,-0.4413391,0.474073,5.1600295e-2,-10.410613,384.37252)"
       cx="138.58928"
       cy="334.42172"
       fx="138.58928"
       fy="334.42172"
       r="29.364538" />
    <radialGradient
       inkscape:collect="always"
       xlink:href="#linearGradient3807"
       id="radialGradient2423"
       gradientUnits="userSpaceOnUse"
       gradientTransform="matrix(4.5139498e-7,-1.5619594,1.0072796,-4.6966364e-8,-168.92431,562.79668)"
       cx="144.92911"
       cy="310.34058"
       fx="144.92911"
       fy="310.34058"
       r="29.364538" />
    <linearGradient
       id="linearGradient3853">
      <stop
         id="stop3855"
         offset="0"
         style="stop-color:#02effe;stop-opacity:1;" />
      <stop
         id="stop3857"
         offset="1"
         style="stop-color:#02effe;stop-opacity:0;" />
    </linearGradient>
    <linearGradient
       id="linearGradient3807">
      <stop
         style="stop-color:#043ce2;stop-opacity:1;"
         offset="0"
         id="stop3809" />
      <stop
         style="stop-color:#02effe;stop-opacity:1;"
         offset="1"
         id="stop3811" />
    </linearGradient>
    <inkscape:perspective
       sodipodi:type="inkscape:persp3d"
       inkscape:vp_x="0 : 526.18109 : 1"
       inkscape:vp_y="0 : 1000 : 0"
       inkscape:vp_z="744.09448 : 526.18109 : 1"
       inkscape:persp3d-origin="372.04724 : 350.78739 : 1"
       id="perspective2768" />
    <inkscape:perspective
       id="perspective2777"
       inkscape:persp3d-origin="372.04724 : 350.78739 : 1"
       inkscape:vp_z="744.09448 : 526.18109 : 1"
       inkscape:vp_y="0 : 1000 : 0"
       inkscape:vp_x="0 : 526.18109 : 1"
       sodipodi:type="inkscape:persp3d" />
    <inkscape:perspective
       id="perspective2798"
       inkscape:persp3d-origin="372.04724 : 350.78739 : 1"
       inkscape:vp_z="744.09448 : 526.18109 : 1"
       inkscape:vp_y="0 : 1000 : 0"
       inkscape:vp_x="0 : 526.18109 : 1"
       sodipodi:type="inkscape:persp3d" />
    <inkscape:perspective
       id="perspective2827"
       inkscape:persp3d-origin="372.04724 : 350.78739 : 1"
       inkscape:vp_z="744.09448 : 526.18109 : 1"
       inkscape:vp_y="0 : 1000 : 0"
       inkscape:vp_x="0 : 526.18109 : 1"
       sodipodi:type="inkscape:persp3d" />
    <inkscape:perspective
       id="perspective2846"
       inkscape:persp3d-origin="372.04724 : 350.78739 : 1"
       inkscape:vp_z="744.09448 : 526.18109 : 1"
       inkscape:vp_y="0 : 1000 : 0"
       inkscape:vp_x="0 : 526.18109 : 1"
       sodipodi:type="inkscape:persp3d" />
    <inkscape:perspective
       id="perspective2975"
       inkscape:persp3d-origin="372.04724 : 350.78739 : 1"
       inkscape:vp_z="744.09448 : 526.18109 : 1"
       inkscape:vp_y="0 : 1000 : 0"
       inkscape:vp_x="0 : 526.18109 : 1"
       sodipodi:type="inkscape:persp3d" />
    <radialGradient
       inkscape:collect="always"
       xlink:href="#linearGradient3807"
       id="radialGradient3813"
       cx="144.92911"
       cy="310.34058"
       fx="144.92911"
       fy="310.34058"
       r="29.364538"
       gradientTransform="matrix(4.5139498e-7,-1.5619594,1.0072796,-4.6966364e-8,-169.02097,562.53732)"
       gradientUnits="userSpaceOnUse" />
    <radialGradient
       inkscape:collect="always"
       xlink:href="#linearGradient3807"
       id="radialGradient3835"
       cx="144.35086"
       cy="155.27568"
       fx="144.35086"
       fy="155.27568"
       r="27.290644"
       gradientTransform="matrix(6.5369071e-2,-1.5478073,1.1263373,4.7568807e-2,-36.106896,386.9586)"
       gradientUnits="userSpaceOnUse" />
    <radialGradient
       inkscape:collect="always"
       xlink:href="#linearGradient3807"
       id="radialGradient3843"
       cx="148.23933"
       cy="152.55739"
       fx="148.23933"
       fy="152.55739"
       r="29.5"
       gradientTransform="matrix(-6.9785255e-3,-1.4738773,0.9781417,-4.6313033e-3,-7.6730836,393.48501)"
       gradientUnits="userSpaceOnUse" />
    <radialGradient
       inkscape:collect="always"
       xlink:href="#linearGradient3853"
       id="radialGradient3859"
       gradientUnits="userSpaceOnUse"
       gradientTransform="matrix(-2.1865995e-2,-0.3925554,0.4163901,-2.3193643e-2,78.834786,233.00173)"
       cx="151.06033"
       cy="148.78595"
       fx="151.06033"
       fy="148.78595"
       r="29.5" />
    <radialGradient
       inkscape:collect="always"
       xlink:href="#linearGradient3853"
       id="radialGradient3871"
       gradientUnits="userSpaceOnUse"
       gradientTransform="matrix(-2.6153001e-2,-0.306687,0.3474167,-2.9626276e-2,89.30844,225.70488)"
       cx="95.90609"
       cy="145.88962"
       fx="95.90609"
       fy="145.88962"
       r="29.5" />
    <radialGradient
       inkscape:collect="always"
       xlink:href="#linearGradient3853"
       id="radialGradient3875"
       gradientUnits="userSpaceOnUse"
       gradientTransform="matrix(-2.568147e-2,-0.257688,0.2410475,-2.4023067e-2,108.75833,215.23282)"
       cx="186.69681"
       cy="185.16139"
       fx="186.69681"
       fy="185.16139"
       r="29.5" />
    <radialGradient
       inkscape:collect="always"
       xlink:href="#linearGradient3853"
       id="radialGradient3879"
       gradientUnits="userSpaceOnUse"
       gradientTransform="matrix(2.3179351e-2,-0.3540112,0.3369425,2.2061733e-2,92.327685,218.44476)"
       cx="148.70107"
       cy="163.15218"
       fx="148.70107"
       fy="163.15218"
       r="27.290644" />
    <radialGradient
       inkscape:collect="always"
       xlink:href="#linearGradient3853"
       id="radialGradient3883"
       gradientUnits="userSpaceOnUse"
       gradientTransform="matrix(4.0124317e-3,-0.3725261,0.3931593,4.2346382e-3,86.97858,222.76717)"
       cx="106.78394"
       cy="131.55884"
       fx="106.78394"
       fy="131.55884"
       r="27.290644" />
    <radialGradient
       inkscape:collect="always"
       xlink:href="#linearGradient3853"
       id="radialGradient3893"
       gradientUnits="userSpaceOnUse"
       gradientTransform="matrix(4.8037414e-2,-0.4413391,0.474073,5.1600295e-2,-10.507275,384.11316)"
       cx="138.58928"
       cy="334.42172"
       fx="138.58928"
       fy="334.42172"
       r="29.364538" />
    <radialGradient
       inkscape:collect="always"
       xlink:href="#linearGradient3853"
       id="radialGradient3897"
       gradientUnits="userSpaceOnUse"
       gradientTransform="matrix(5.0372302e-2,-0.3497757,0.3566224,5.1358303e-2,23.46894,370.05846)"
       cx="154.26961"
       cy="292.34778"
       fx="154.26961"
       fy="292.34778"
       r="29.364538" />
  </defs>
  <sodipodi:namedview
     id="base"
     pagecolor="#ffffff"
     bordercolor="#666666"
     borderopacity="1.0"
     inkscape:pageopacity="0.0"
     inkscape:pageshadow="2"
     inkscape:zoom="3.6097347"
     inkscape:cx="42.904775"
     inkscape:cy="74.550001"
     inkscape:document-units="px"
     inkscape:current-layer="layer1"
     showgrid="false"
     showguides="true"
     inkscape:guide-bbox="true"
     inkscape:window-width="1272"
     inkscape:window-height="734"
     inkscape:window-x="0"
     inkscape:window-y="40" />
  <metadata
     id="metadata2765">
    <rdf:RDF>
      <cc:Work
         rdf:about="">
        <dc:format>image/svg+xml</dc:format>
        <dc:type
           rdf:resource="http://purl.org/dc/dcmitype/StillImage" />
      </cc:Work>
    </rdf:RDF>
  </metadata>
  <g
     inkscape:label="Calque 1"
     inkscape:groupmode="layer"
     id="layer1"
     transform="translate(-275.33361,-209.6926)">
    <g
       id="lay3"
       transform="translate(175.31846,153.36201)"
       inkscape:export-xdpi="90"
       inkscape:export-ydpi="90">
      <path
         style="fill:url(#radialGradient3843);fill-opacity:1"
         d="M 127.22446,203.82619 C 123.0411,201.65867 121.90035,200.51233 121.37534,197.94841 C 121.01662,196.19659 121.0313,194.26464 121.40796,193.65519 C 121.78463,193.04573 120.92923,191.02156 119.50708,189.15703 C 116.02084,184.58633 115.97051,178.55225 119.38477,174.49463 C 121.49301,171.98912 121.6854,171.20975 120.71912,169.089 C 119.78465,167.03807 119.99569,165.74489 121.94354,161.58615 C 124.03231,157.12654 124.15748,156.17543 123.05638,153.13038 C 122.16549,150.66667 122.11254,149.14481 122.86854,147.73221 C 123.44759,146.65025 123.92136,144.46386 123.92136,142.87358 C 123.92136,139.61262 127.49372,135.63352 130.42136,135.63352 C 131.45046,135.63352 133.30064,136.58067 134.53288,137.73829 C 138.08616,141.07643 138.92136,139.39351 138.92136,128.8955 C 138.92136,114.70712 141.64316,109.35367 146.26198,114.45741 C 147.56407,115.8962 148.01423,119.11611 148.39404,129.70741 C 148.65884,137.09177 148.91384,143.92019 148.96071,144.88167 C 149.00758,145.84316 149.88648,147.07967 150.91381,147.62948 C 151.94114,148.17929 152.92561,149.59667 153.10152,150.7792 C 153.41535,152.88892 154.68353,153.95221 158.17136,155.02999 C 159.32423,155.38623 159.92136,156.58497 159.92136,158.54312 C 159.92136,160.17792 160.32037,161.76209 160.80805,162.06349 C 162.91526,163.36582 166.87889,154.79934 166.9063,148.88352 C 166.91782,146.39663 167.35457,145.63352 168.76637,145.63352 C 172.81935,145.63352 173.92136,148.65389 173.92136,159.76226 C 173.92136,165.52145 173.5073,170.66102 173.00123,171.18352 C 172.49515,171.70602 171.18923,174.69253 170.09916,177.82021 C 169.0091,180.94789 167.17316,184.52024 166.01929,185.75877 C 164.86543,186.9973 163.92136,188.80462 163.92136,189.77503 C 163.92136,192.81732 161.79726,196.36903 159.29636,197.50852 C 157.97391,198.11107 156.36092,199.76944 155.71194,201.19379 C 153.85673,205.26554 150.02731,206.64047 140.72102,206.57619 C 133.73158,206.5279 131.60095,206.09378 127.22446,203.82619 z M 114.92136,138.95452 C 114.92136,134.73107 115.46737,129.76554 116.13472,127.92002 C 117.6961,123.60209 121.24753,122.51525 124.18782,125.45554 C 126.11049,127.37821 126.16953,127.85153 124.94824,131.55208 C 124.21999,133.75869 122.56602,136.55817 121.27275,137.77313 C 119.97948,138.98809 118.92136,140.7669 118.92136,141.72605 C 118.92136,144.5431 117.81087,146.63352 116.31437,146.63352 C 115.24462,146.63352 114.92136,144.85151 114.92136,138.95452 z M 162.35575,136.52737 C 161.97975,135.91899 163.07449,134.01885 164.78849,132.30485 C 167.57053,129.52281 168.0672,129.35079 169.4179,130.70149 C 171.75451,133.03811 169.31689,137.61532 165.73037,137.62572 C 164.25033,137.63001 162.73175,137.13576 162.35575,136.52737 z M 128.92136,112.06397 C 128.92136,107.95704 129.1388,107.52677 131.06923,107.81397 C 132.25056,107.98972 133.698,108.9008 134.28576,109.83858 C 135.12652,111.18001 134.84455,112.08638 132.96358,114.08858 C 129.61864,117.6491 128.92136,117.29986 128.92136,112.06397 z M 155.58802,115.96686 C 154.21072,114.58955 154.97301,108.89675 156.7501,107.28851 C 159.99423,104.35261 161.92136,105.16875 161.92136,109.47853 C 161.92136,114.34535 157.99202,118.37085 155.58802,115.96686 z M 141.2939,88.877446 C 140.98589,87.918288 140.26307,85.875745 139.68764,84.338463 C 138.94047,82.342418 138.96727,80.828166 139.78137,79.04141 C 140.40836,77.665313 140.92136,74.605334 140.92136,72.241457 C 140.92136,67.992351 143.04727,64.633522 145.73668,64.633522 C 147.64888,64.633522 149.92136,71.514908 149.92136,77.305306 C 149.92136,83.694749 148.08059,87.784308 144.46264,89.43276 C 142.22627,90.451717 141.77399,90.372456 141.2939,88.877446 z"
         id="path2985" />
      <path
         id="path3851"
         d="M 127.22446,203.82619 C 123.0411,201.65867 121.90035,200.51233 121.37534,197.94841 C 121.01662,196.19659 121.0313,194.26464 121.40796,193.65519 C 121.78463,193.04573 120.92923,191.02156 119.50708,189.15703 C 116.02084,184.58633 115.97051,178.55225 119.38477,174.49463 C 121.49301,171.98912 121.6854,171.20975 120.71912,169.089 C 119.78465,167.03807 119.99569,165.74489 121.94354,161.58615 C 124.03231,157.12654 124.15748,156.17543 123.05638,153.13038 C 122.16549,150.66667 122.11254,149.14481 122.86854,147.73221 C 123.44759,146.65025 123.92136,144.46386 123.92136,142.87358 C 123.92136,139.61262 127.49372,135.63352 130.42136,135.63352 C 131.45046,135.63352 133.30064,136.58067 134.53288,137.73829 C 138.08616,141.07643 138.92136,139.39351 138.92136,128.8955 C 138.92136,114.70712 141.64316,109.35367 146.26198,114.45741 C 147.56407,115.8962 148.01423,119.11611 148.39404,129.70741 C 148.65884,137.09177 148.91384,143.92019 148.96071,144.88167 C 149.00758,145.84316 149.88648,147.07967 150.91381,147.62948 C 151.94114,148.17929 152.92561,149.59667 153.10152,150.7792 C 153.41535,152.88892 154.68353,153.95221 158.17136,155.02999 C 159.32423,155.38623 159.92136,156.58497 159.92136,158.54312 C 159.92136,160.17792 160.32037,161.76209 160.80805,162.06349 C 162.91526,163.36582 166.87889,154.79934 166.9063,148.88352 C 166.91782,146.39663 167.35457,145.63352 168.76637,145.63352 C 172.81935,145.63352 173.92136,148.65389 173.92136,159.76226 C 173.92136,165.52145 173.5073,170.66102 173.00123,171.18352 C 172.49515,171.70602 171.18923,174.69253 170.09916,177.82021 C 169.0091,180.94789 167.17316,184.52024 166.01929,185.75877 C 164.86543,186.9973 163.92136,188.80462 163.92136,189.77503 C 163.92136,192.81732 161.79726,196.36903 159.29636,197.50852 C 157.97391,198.11107 156.36092,199.76944 155.71194,201.19379 C 153.85673,205.26554 150.02731,206.64047 140.72102,206.57619 C 133.73158,206.5279 131.60095,206.09378 127.22446,203.82619 z M 114.92136,138.95452 C 114.92136,134.73107 115.46737,129.76554 116.13472,127.92002 C 117.6961,123.60209 121.24753,122.51525 124.18782,125.45554 C 126.11049,127.37821 126.16953,127.85153 124.94824,131.55208 C 124.21999,133.75869 122.56602,136.55817 121.27275,137.77313 C 119.97948,138.98809 118.92136,140.7669 118.92136,141.72605 C 118.92136,144.5431 117.81087,146.63352 116.31437,146.63352 C 115.24462,146.63352 114.92136,144.85151 114.92136,138.95452 z M 162.35575,136.52737 C 161.97975,135.91899 163.07449,134.01885 164.78849,132.30485 C 167.57053,129.52281 168.0672,129.35079 169.4179,130.70149 C 171.75451,133.03811 169.31689,137.61532 165.73037,137.62572 C 164.25033,137.63001 162.73175,137.13576 162.35575,136.52737 z M 128.92136,112.06397 C 128.92136,107.95704 129.1388,107.52677 131.06923,107.81397 C 132.25056,107.98972 133.698,108.9008 134.28576,109.83858 C 135.12652,111.18001 134.84455,112.08638 132.96358,114.08858 C 129.61864,117.6491 128.92136,117.29986 128.92136,112.06397 z M 155.58802,115.96686 C 154.21072,114.58955 154.97301,108.89675 156.7501,107.28851 C 159.99423,104.35261 161.92136,105.16875 161.92136,109.47853 C 161.92136,114.34535 157.99202,118.37085 155.58802,115.96686 z M 141.2939,88.877446 C 140.98589,87.918288 140.26307,85.875745 139.68764,84.338463 C 138.94047,82.342418 138.96727,80.828166 139.78137,79.04141 C 140.40836,77.665313 140.92136,74.605334 140.92136,72.241457 C 140.92136,67.992351 143.04727,64.633522 145.73668,64.633522 C 147.64888,64.633522 149.92136,71.514908 149.92136,77.305306 C 149.92136,83.694749 148.08059,87.784308 144.46264,89.43276 C 142.22627,90.451717 141.77399,90.372456 141.2939,88.877446 z"
         style="fill:url(#radialGradient3859);fill-opacity:1" />
      <path
         style="fill:url(#radialGradient3871);fill-opacity:1"
         d="M 127.22446,203.82619 C 123.0411,201.65867 121.90035,200.51233 121.37534,197.94841 C 121.01662,196.19659 121.0313,194.26464 121.40796,193.65519 C 121.78463,193.04573 120.92923,191.02156 119.50708,189.15703 C 116.02084,184.58633 115.97051,178.55225 119.38477,174.49463 C 121.49301,171.98912 121.6854,171.20975 120.71912,169.089 C 119.78465,167.03807 119.99569,165.74489 121.94354,161.58615 C 124.03231,157.12654 124.15748,156.17543 123.05638,153.13038 C 122.16549,150.66667 122.11254,149.14481 122.86854,147.73221 C 123.44759,146.65025 123.92136,144.46386 123.92136,142.87358 C 123.92136,139.61262 127.49372,135.63352 130.42136,135.63352 C 131.45046,135.63352 133.30064,136.58067 134.53288,137.73829 C 138.08616,141.07643 138.92136,139.39351 138.92136,128.8955 C 138.92136,114.70712 141.64316,109.35367 146.26198,114.45741 C 147.56407,115.8962 148.01423,119.11611 148.39404,129.70741 C 148.65884,137.09177 148.91384,143.92019 148.96071,144.88167 C 149.00758,145.84316 149.88648,147.07967 150.91381,147.62948 C 151.94114,148.17929 152.92561,149.59667 153.10152,150.7792 C 153.41535,152.88892 154.68353,153.95221 158.17136,155.02999 C 159.32423,155.38623 159.92136,156.58497 159.92136,158.54312 C 159.92136,160.17792 160.32037,161.76209 160.80805,162.06349 C 162.91526,163.36582 166.87889,154.79934 166.9063,148.88352 C 166.91782,146.39663 167.35457,145.63352 168.76637,145.63352 C 172.81935,145.63352 173.92136,148.65389 173.92136,159.76226 C 173.92136,165.52145 173.5073,170.66102 173.00123,171.18352 C 172.49515,171.70602 171.18923,174.69253 170.09916,177.82021 C 169.0091,180.94789 167.17316,184.52024 166.01929,185.75877 C 164.86543,186.9973 163.92136,188.80462 163.92136,189.77503 C 163.92136,192.81732 161.79726,196.36903 159.29636,197.50852 C 157.97391,198.11107 156.36092,199.76944 155.71194,201.19379 C 153.85673,205.26554 150.02731,206.64047 140.72102,206.57619 C 133.73158,206.5279 131.60095,206.09378 127.22446,203.82619 z M 114.92136,138.95452 C 114.92136,134.73107 115.46737,129.76554 116.13472,127.92002 C 117.6961,123.60209 121.24753,122.51525 124.18782,125.45554 C 126.11049,127.37821 126.16953,127.85153 124.94824,131.55208 C 124.21999,133.75869 122.56602,136.55817 121.27275,137.77313 C 119.97948,138.98809 118.92136,140.7669 118.92136,141.72605 C 118.92136,144.5431 117.81087,146.63352 116.31437,146.63352 C 115.24462,146.63352 114.92136,144.85151 114.92136,138.95452 z M 162.35575,136.52737 C 161.97975,135.91899 163.07449,134.01885 164.78849,132.30485 C 167.57053,129.52281 168.0672,129.35079 169.4179,130.70149 C 171.75451,133.03811 169.31689,137.61532 165.73037,137.62572 C 164.25033,137.63001 162.73175,137.13576 162.35575,136.52737 z M 128.92136,112.06397 C 128.92136,107.95704 129.1388,107.52677 131.06923,107.81397 C 132.25056,107.98972 133.698,108.9008 134.28576,109.83858 C 135.12652,111.18001 134.84455,112.08638 132.96358,114.08858 C 129.61864,117.6491 128.92136,117.29986 128.92136,112.06397 z M 155.58802,115.96686 C 154.21072,114.58955 154.97301,108.89675 156.7501,107.28851 C 159.99423,104.35261 161.92136,105.16875 161.92136,109.47853 C 161.92136,114.34535 157.99202,118.37085 155.58802,115.96686 z M 141.2939,88.877446 C 140.98589,87.918288 140.26307,85.875745 139.68764,84.338463 C 138.94047,82.342418 138.96727,80.828166 139.78137,79.04141 C 140.40836,77.665313 140.92136,74.605334 140.92136,72.241457 C 140.92136,67.992351 143.04727,64.633522 145.73668,64.633522 C 147.64888,64.633522 149.92136,71.514908 149.92136,77.305306 C 149.92136,83.694749 148.08059,87.784308 144.46264,89.43276 C 142.22627,90.451717 141.77399,90.372456 141.2939,88.877446 z"
         id="path3861" />
      <path
         id="path3873"
         d="M 127.22446,203.82619 C 123.0411,201.65867 121.90035,200.51233 121.37534,197.94841 C 121.01662,196.19659 121.0313,194.26464 121.40796,193.65519 C 121.78463,193.04573 120.92923,191.02156 119.50708,189.15703 C 116.02084,184.58633 115.97051,178.55225 119.38477,174.49463 C 121.49301,171.98912 121.6854,171.20975 120.71912,169.089 C 119.78465,167.03807 119.99569,165.74489 121.94354,161.58615 C 124.03231,157.12654 124.15748,156.17543 123.05638,153.13038 C 122.16549,150.66667 122.11254,149.14481 122.86854,147.73221 C 123.44759,146.65025 123.92136,144.46386 123.92136,142.87358 C 123.92136,139.61262 127.49372,135.63352 130.42136,135.63352 C 131.45046,135.63352 133.30064,136.58067 134.53288,137.73829 C 138.08616,141.07643 138.92136,139.39351 138.92136,128.8955 C 138.92136,114.70712 141.64316,109.35367 146.26198,114.45741 C 147.56407,115.8962 148.01423,119.11611 148.39404,129.70741 C 148.65884,137.09177 148.91384,143.92019 148.96071,144.88167 C 149.00758,145.84316 149.88648,147.07967 150.91381,147.62948 C 151.94114,148.17929 152.92561,149.59667 153.10152,150.7792 C 153.41535,152.88892 154.68353,153.95221 158.17136,155.02999 C 159.32423,155.38623 159.92136,156.58497 159.92136,158.54312 C 159.92136,160.17792 160.32037,161.76209 160.80805,162.06349 C 162.91526,163.36582 166.87889,154.79934 166.9063,148.88352 C 166.91782,146.39663 167.35457,145.63352 168.76637,145.63352 C 172.81935,145.63352 173.92136,148.65389 173.92136,159.76226 C 173.92136,165.52145 173.5073,170.66102 173.00123,171.18352 C 172.49515,171.70602 171.18923,174.69253 170.09916,177.82021 C 169.0091,180.94789 167.17316,184.52024 166.01929,185.75877 C 164.86543,186.9973 163.92136,188.80462 163.92136,189.77503 C 163.92136,192.81732 161.79726,196.36903 159.29636,197.50852 C 157.97391,198.11107 156.36092,199.76944 155.71194,201.19379 C 153.85673,205.26554 150.02731,206.64047 140.72102,206.57619 C 133.73158,206.5279 131.60095,206.09378 127.22446,203.82619 z M 114.92136,138.95452 C 114.92136,134.73107 115.46737,129.76554 116.13472,127.92002 C 117.6961,123.60209 121.24753,122.51525 124.18782,125.45554 C 126.11049,127.37821 126.16953,127.85153 124.94824,131.55208 C 124.21999,133.75869 122.56602,136.55817 121.27275,137.77313 C 119.97948,138.98809 118.92136,140.7669 118.92136,141.72605 C 118.92136,144.5431 117.81087,146.63352 116.31437,146.63352 C 115.24462,146.63352 114.92136,144.85151 114.92136,138.95452 z M 162.35575,136.52737 C 161.97975,135.91899 163.07449,134.01885 164.78849,132.30485 C 167.57053,129.52281 168.0672,129.35079 169.4179,130.70149 C 171.75451,133.03811 169.31689,137.61532 165.73037,137.62572 C 164.25033,137.63001 162.73175,137.13576 162.35575,136.52737 z M 128.92136,112.06397 C 128.92136,107.95704 129.1388,107.52677 131.06923,107.81397 C 132.25056,107.98972 133.698,108.9008 134.28576,109.83858 C 135.12652,111.18001 134.84455,112.08638 132.96358,114.08858 C 129.61864,117.6491 128.92136,117.29986 128.92136,112.06397 z M 155.58802,115.96686 C 154.21072,114.58955 154.97301,108.89675 156.7501,107.28851 C 159.99423,104.35261 161.92136,105.16875 161.92136,109.47853 C 161.92136,114.34535 157.99202,118.37085 155.58802,115.96686 z M 141.2939,88.877446 C 140.98589,87.918288 140.26307,85.875745 139.68764,84.338463 C 138.94047,82.342418 138.96727,80.828166 139.78137,79.04141 C 140.40836,77.665313 140.92136,74.605334 140.92136,72.241457 C 140.92136,67.992351 143.04727,64.633522 145.73668,64.633522 C 147.64888,64.633522 149.92136,71.514908 149.92136,77.305306 C 149.92136,83.694749 148.08059,87.784308 144.46264,89.43276 C 142.22627,90.451717 141.77399,90.372456 141.2939,88.877446 z"
         style="fill:url(#radialGradient3875);fill-opacity:1" />
      <path
         style="fill:#000000"
         d="M 127.22446,203.82619 C 123.0411,201.65867 121.90035,200.51233 121.37534,197.94841 C 121.01662,196.19659 121.0313,194.26464 121.40796,193.65519 C 121.78463,193.04573 120.92923,191.02156 119.50708,189.15703 C 116.02084,184.58633 115.97051,178.55225 119.38477,174.49463 C 121.49301,171.98912 121.6854,171.20975 120.71912,169.089 C 119.78465,167.03807 119.99569,165.74489 121.94354,161.58615 C 124.03231,157.12654 124.15748,156.17543 123.05638,153.13038 C 122.16549,150.66667 122.11254,149.14481 122.86854,147.73221 C 123.44759,146.65025 123.92136,144.46386 123.92136,142.87358 C 123.92136,137.41735 130.91416,133.51007 134.00781,137.2377 C 134.74006,138.11999 136.29327,139.20462 137.45941,139.64799 C 139.30136,140.3483 139.50364,141.0098 139.0005,144.68786 C 137.90992,152.6604 131.92136,152.0797 131.92136,144.00141 C 131.92136,140.06574 130.30951,138.81679 128.09206,141.03424 C 126.0145,143.11181 125.88393,152.74132 127.86858,157.51712 C 129.21992,160.76895 129.16961,160.97725 126.5767,162.86605 C 124.1169,164.65789 123.93297,165.242 124.4933,169.48246 C 125.04366,173.64757 124.78469,174.53969 122.01462,178.02102 C 120.31332,180.15915 118.92136,182.21246 118.92136,182.58393 C 118.92136,182.95541 120.31073,184.58103 122.00886,186.19643 C 124.70581,188.762 125.03077,189.63249 124.57789,193.07826 C 124.29274,195.24786 124.49459,197.83611 125.02646,198.82991 C 126.61826,201.80422 132.5708,203.63352 140.65741,203.63352 L 148.14921,203.63352 L 154.65797,197.15669 C 159.52519,192.31335 161.03428,190.17334 160.64154,188.67151 C 160.302,187.3731 161.17805,185.33232 163.1198,182.89834 C 169.79643,174.52918 173.07847,163.61501 171.48031,155.09608 C 170.92648,152.14392 170.47863,151.63926 168.86666,152.15088 C 167.18774,152.68375 166.92136,152.27979 166.92136,149.20091 C 166.92136,146.40008 167.31781,145.63352 168.76637,145.63352 C 172.827,145.63352 173.92136,148.6494 173.92136,159.83982 C 173.92136,167.99659 173.58122,170.67092 172.42136,171.63352 C 171.59636,172.31821 170.92136,173.66835 170.92136,174.63384 C 170.92136,177.22083 168.09619,183.52949 165.86534,185.92402 C 164.79615,187.07166 163.92136,188.80462 163.92136,189.77503 C 163.92136,192.81732 161.79726,196.36903 159.29636,197.50852 C 157.97391,198.11107 156.36092,199.76944 155.71194,201.19379 C 153.85673,205.26554 150.02731,206.64047 140.72102,206.57619 C 133.73158,206.5279 131.60095,206.09378 127.22446,203.82619 z M 135.00361,195.23262 C 132.02653,191.64547 135.97051,187.42362 140.4093,189.44607 C 142.48414,190.39143 142.9847,191.24 142.73696,193.39197 C 142.47826,195.63922 141.86509,196.1878 139.33618,196.43459 C 137.49354,196.6144 135.74862,196.13032 135.00361,195.23262 z M 135.67136,175.55342 C 131.95983,173.39166 134.71434,165.63352 139.19339,165.63352 C 140.92717,165.63352 143.92136,169.25755 143.92136,171.35603 C 143.92136,173.01121 140.28811,176.64244 138.67136,176.60311 C 137.98386,176.58639 136.63386,176.11403 135.67136,175.55342 z M 159.12136,167.43352 C 158.46136,166.77352 157.92136,165.00566 157.92136,163.50495 C 157.92136,160.76588 155.68652,157.63352 153.73228,157.63352 C 153.15686,157.63352 150.87422,155.82168 148.65975,153.60721 L 144.63343,149.58089 L 145.17456,139.76063 C 145.85001,127.50253 145.05268,116.42327 143.5315,116.92964 C 142.92092,117.13288 141.96202,121.39624 141.4006,126.40377 C 140.83919,131.41129 140.05169,135.83652 139.6506,136.23761 C 138.42359,137.46463 138.84139,119.49665 140.12224,115.95452 C 141.46945,112.22888 143.74339,111.67441 146.26198,114.45741 C 147.56407,115.8962 148.01423,119.11611 148.39404,129.70741 C 148.65884,137.09177 148.91384,143.92019 148.96071,144.88167 C 149.00758,145.84316 149.88648,147.07967 150.91381,147.62948 C 151.94114,148.17929 152.92561,149.59667 153.10152,150.7792 C 153.41535,152.88892 154.68353,153.95221 158.17136,155.02999 C 159.30492,155.38027 159.92136,156.57984 159.92136,158.43547 C 159.92136,160.01106 160.22234,161.60117 160.5902,161.96904 C 161.58228,162.96111 164.92136,159.59359 164.92136,157.60098 C 164.92136,156.65357 165.66999,155.26081 166.58499,154.50597 C 168.10782,153.24967 168.18852,153.51153 167.53855,157.60001 C 166.88459,161.71359 162.82797,168.63352 161.07047,168.63352 C 160.65846,168.63352 159.78136,168.09352 159.12136,167.43352 z M 147.00263,165.23145 C 144.96216,162.77283 146.04223,159.13352 148.81237,159.13352 C 151.92597,159.13352 153.82227,161.98066 152.30906,164.38352 C 150.84943,166.7013 148.53008,167.07192 147.00263,165.23145 z M 114.92136,138.95452 C 114.92136,129.65028 116.46557,124.78602 119.67501,123.9805 C 123.66297,122.97959 128.17058,129.12539 124.92136,131.13352 C 124.37136,131.47344 123.92136,132.54656 123.92136,133.51823 C 123.92136,134.48989 122.79636,136.34178 121.42136,137.63352 C 120.04636,138.92527 118.92136,140.7669 118.92136,141.72605 C 118.92136,144.5431 117.81087,146.63352 116.31437,146.63352 C 115.24462,146.63352 114.92136,144.85151 114.92136,138.95452 z M 122.91639,129.3102 C 122.9239,126.55206 119.67446,127.66167 118.09529,130.95649 C 117.35758,132.49568 117.05131,134.51517 117.41469,135.44427 C 117.97693,136.88179 118.43572,136.68647 120.4934,134.13352 C 121.82331,132.48352 122.91366,130.31303 122.91639,129.3102 z M 162.37208,136.55379 C 162.00506,135.95995 163.12526,134.08527 164.86142,132.38786 C 167.62536,129.6856 168.19925,129.48285 169.47449,130.75809 C 171.75832,133.04191 169.26489,137.61547 165.73037,137.62572 C 164.25033,137.63001 162.7391,137.14765 162.37208,136.55379 z M 128.92136,112.06397 C 128.92136,107.95704 129.1388,107.52677 131.06923,107.81397 C 132.25056,107.98972 133.698,108.9008 134.28576,109.83858 C 135.12652,111.18001 134.84455,112.08638 132.96358,114.08858 C 129.61864,117.6491 128.92136,117.29986 128.92136,112.06397 z M 155.58802,115.96686 C 154.21072,114.58955 154.97301,108.89675 156.7501,107.28851 C 159.99423,104.35261 161.92136,105.16875 161.92136,109.47853 C 161.92136,114.34535 157.99202,118.37085 155.58802,115.96686 z M 141.6552,89.879855 C 141.44638,89.469372 140.66936,87.207509 139.92848,84.853492 C 138.3267,79.764156 139.64139,77.210697 142.4285,79.997808 C 144.66893,82.238243 145.77292,82.053418 147.06304,79.22191 C 148.53301,75.995667 146.96271,69.265167 144.63545,68.816977 C 143.47471,68.59344 142.92136,69.137148 142.92136,70.501181 C 142.92136,71.60905 142.47136,72.793603 141.92136,73.133522 C 140.02585,74.305011 140.90268,67.960395 142.88411,66.167228 C 145.22452,64.04919 147.92136,64.785815 147.92136,67.54312 C 147.92136,68.627922 148.37136,69.793603 148.92136,70.133522 C 150.31665,70.995863 150.1743,81.984264 148.72667,85.161464 C 147.51902,87.811968 142.3558,91.257091 141.6552,89.879855 z"
         id="path2983" />
      <path
         transform="translate(-312.48377,-146.87567)"
         style="fill:#d40000"
         d="M 453.97322,318.21039 C 453.97322,319.46717 452.09572,320.75503 450.93751,320.75503 C 449.77929,320.75503 448.61607,319.64574 448.61607,318.38896 C 448.61607,317.13217 450.22572,314.95146 451.38394,314.95146 C 452.54215,314.95146 453.97322,316.9536 453.97322,318.21039 z"
         id="path3917"
         sodipodi:nodetypes="csssc" />
      <path
         sodipodi:nodetypes="csssc"
         id="path3920"
         d="M 140.92441,192.93439 C 140.92441,194.19117 139.62727,194.89867 138.46906,194.89867 C 137.31084,194.89867 135.87976,194.23581 135.87976,192.97903 C 135.87976,191.72224 137.22155,190.6576 138.37977,190.6576 C 139.53798,190.6576 140.92441,191.6776 140.92441,192.93439 z"
         style="fill:#d40000" />
      <path
         transform="translate(-312.48377,-146.87567)"
         style="fill:#d40000"
         d="M 463.21427,309.65012 C 463.21427,310.40788 462.62427,311.02288 461.89731,311.02288 C 461.17034,311.02288 460.40177,310.47484 460.40177,309.71708 C 460.40177,308.95931 460.88016,308.14342 461.60713,308.14342 C 462.33409,308.14342 463.21427,308.89235 463.21427,309.65012 z"
         id="path3924"
         sodipodi:nodetypes="csssc" />
    </g>
  </g>
</svg>
