<?xml version="1.0" encoding="UTF-8" standalone="no"?>
<!-- Created with Inkscape (http://www.inkscape.org/) -->
<svg
   xmlns:dc="http://purl.org/dc/elements/1.1/"
   xmlns:cc="http://creativecommons.org/ns#"
   xmlns:rdf="http://www.w3.org/1999/02/22-rdf-syntax-ns#"
   xmlns:svg="http://www.w3.org/2000/svg"
   xmlns="http://www.w3.org/2000/svg"
   xmlns:xlink="http://www.w3.org/1999/xlink"
   xmlns:sodipodi="http://sodipodi.sourceforge.net/DTD/sodipodi-0.dtd"
   xmlns:inkscape="http://www.inkscape.org/namespaces/inkscape"
   width="83"
   height="150"
   id="svg2760"
   sodipodi:version="0.32"
   inkscape:version="0.46"
   sodipodi:docname="comet1.svg"
   inkscape:output_extension="org.inkscape.output.svg.inkscape"
   version="1.0">
  <defs
     id="defs2762">
    <radialGradient
       inkscape:collect="always"
       xlink:href="#linearGradient3853"
       id="radialGradient2427"
       gradientUnits="userSpaceOnUse"
       gradientTransform="matrix(5.0372302e-2,-0.3497757,0.3566224,5.1358303e-2,23.565601,370.31782)"
       cx="154.26961"
       cy="292.34778"
       fx="154.26961"
       fy="292.34778"
       r="29.364538" />
    <radialGradient
       inkscape:collect="always"
       xlink:href="#linearGradient3853"
       id="radialGradient2425"
       gradientUnits="userSpaceOnUse"
       gradientTransform="matrix(4.8037414e-2,-0.4413391,0.474073,5.1600295e-2,-10.410613,384.37252)"
       cx="138.58928"
       cy="334.42172"
       fx="138.58928"
       fy="334.42172"
       r="29.364538" />
    <radialGradient
       inkscape:collect="always"
       xlink:href="#linearGradient3807"
       id="radialGradient2423"
       gradientUnits="userSpaceOnUse"
       gradientTransform="matrix(4.5139498e-7,-1.5619594,1.0072796,-4.6966364e-8,-168.92431,562.79668)"
       cx="144.92911"
       cy="310.34058"
       fx="144.92911"
       fy="310.34058"
       r="29.364538" />
    <linearGradient
       id="linearGradient3853">
      <stop
         id="stop3855"
         offset="0"
         style="stop-color:#02effe;stop-opacity:1;" />
      <stop
         id="stop3857"
         offset="1"
         style="stop-color:#02effe;stop-opacity:0;" />
    </linearGradient>
    <linearGradient
       id="linearGradient3807">
      <stop
         style="stop-color:#043ce2;stop-opacity:1;"
         offset="0"
         id="stop3809" />
      <stop
         style="stop-color:#02effe;stop-opacity:1;"
         offset="1"
         id="stop3811" />
    </linearGradient>
    <inkscape:perspective
       sodipodi:type="inkscape:persp3d"
       inkscape:vp_x="0 : 526.18109 : 1"
       inkscape:vp_y="0 : 1000 : 0"
       inkscape:vp_z="744.09448 : 526.18109 : 1"
       inkscape:persp3d-origin="372.04724 : 350.78739 : 1"
       id="perspective2768" />
    <inkscape:perspective
       id="perspective2777"
       inkscape:persp3d-origin="372.04724 : 350.78739 : 1"
       inkscape:vp_z="744.09448 : 526.18109 : 1"
       inkscape:vp_y="0 : 1000 : 0"
       inkscape:vp_x="0 : 526.18109 : 1"
       sodipodi:type="inkscape:persp3d" />
    <inkscape:perspective
       id="perspective2798"
       inkscape:persp3d-origin="372.04724 : 350.78739 : 1"
       inkscape:vp_z="744.09448 : 526.18109 : 1"
       inkscape:vp_y="0 : 1000 : 0"
       inkscape:vp_x="0 : 526.18109 : 1"
       sodipodi:type="inkscape:persp3d" />
    <inkscape:perspective
       id="perspective2827"
       inkscape:persp3d-origin="372.04724 : 350.78739 : 1"
       inkscape:vp_z="744.09448 : 526.18109 : 1"
       inkscape:vp_y="0 : 1000 : 0"
       inkscape:vp_x="0 : 526.18109 : 1"
       sodipodi:type="inkscape:persp3d" />
    <inkscape:perspective
       id="perspective2846"
       inkscape:persp3d-origin="372.04724 : 350.78739 : 1"
       inkscape:vp_z="744.09448 : 526.18109 : 1"
       inkscape:vp_y="0 : 1000 : 0"
       inkscape:vp_x="0 : 526.18109 : 1"
       sodipodi:type="inkscape:persp3d" />
    <inkscape:perspective
       id="perspective2975"
       inkscape:persp3d-origin="372.04724 : 350.78739 : 1"
       inkscape:vp_z="744.09448 : 526.18109 : 1"
       inkscape:vp_y="0 : 1000 : 0"
       inkscape:vp_x="0 : 526.18109 : 1"
       sodipodi:type="inkscape:persp3d" />
    <radialGradient
       inkscape:collect="always"
       xlink:href="#linearGradient3807"
       id="radialGradient3813"
       cx="144.92911"
       cy="310.34058"
       fx="144.92911"
       fy="310.34058"
       r="29.364538"
       gradientTransform="matrix(4.5139498e-7,-1.5619594,1.0072796,-4.6966364e-8,-169.02097,562.53732)"
       gradientUnits="userSpaceOnUse" />
    <radialGradient
       inkscape:collect="always"
       xlink:href="#linearGradient3807"
       id="radialGradient3835"
       cx="144.35086"
       cy="155.27568"
       fx="144.35086"
       fy="155.27568"
       r="27.290644"
       gradientTransform="matrix(6.5369071e-2,-1.5478073,1.1263373,4.7568807e-2,-36.106896,386.9586)"
       gradientUnits="userSpaceOnUse" />
    <radialGradient
       inkscape:collect="always"
       xlink:href="#linearGradient3807"
       id="radialGradient3843"
       cx="148.23933"
       cy="152.55739"
       fx="148.23933"
       fy="152.55739"
       r="29.5"
       gradientTransform="matrix(-6.9785255e-3,-1.4738773,0.9781417,-4.6313033e-3,-7.6730836,393.48501)"
       gradientUnits="userSpaceOnUse" />
    <radialGradient
       inkscape:collect="always"
       xlink:href="#linearGradient3853"
       id="radialGradient3859"
       gradientUnits="userSpaceOnUse"
       gradientTransform="matrix(-2.1865995e-2,-0.3925554,0.4163901,-2.3193643e-2,78.834786,233.00173)"
       cx="151.06033"
       cy="148.78595"
       fx="151.06033"
       fy="148.78595"
       r="29.5" />
    <radialGradient
       inkscape:collect="always"
       xlink:href="#linearGradient3853"
       id="radialGradient3871"
       gradientUnits="userSpaceOnUse"
       gradientTransform="matrix(-2.6153001e-2,-0.306687,0.3474167,-2.9626276e-2,89.30844,225.70488)"
       cx="95.90609"
       cy="145.88962"
       fx="95.90609"
       fy="145.88962"
       r="29.5" />
    <radialGradient
       inkscape:collect="always"
       xlink:href="#linearGradient3853"
       id="radialGradient3875"
       gradientUnits="userSpaceOnUse"
       gradientTransform="matrix(-2.568147e-2,-0.257688,0.2410475,-2.4023067e-2,108.75833,215.23282)"
       cx="186.69681"
       cy="185.16139"
       fx="186.69681"
       fy="185.16139"
       r="29.5" />
    <radialGradient
       inkscape:collect="always"
       xlink:href="#linearGradient3853"
       id="radialGradient3879"
       gradientUnits="userSpaceOnUse"
       gradientTransform="matrix(2.3179351e-2,-0.3540112,0.3369425,2.2061733e-2,92.327685,218.44476)"
       cx="148.70107"
       cy="163.15218"
       fx="148.70107"
       fy="163.15218"
       r="27.290644" />
    <radialGradient
       inkscape:collect="always"
       xlink:href="#linearGradient3853"
       id="radialGradient3883"
       gradientUnits="userSpaceOnUse"
       gradientTransform="matrix(4.0124317e-3,-0.3725261,0.3931593,4.2346382e-3,86.97858,222.76717)"
       cx="106.78394"
       cy="131.55884"
       fx="106.78394"
       fy="131.55884"
       r="27.290644" />
    <radialGradient
       inkscape:collect="always"
       xlink:href="#linearGradient3853"
       id="radialGradient3893"
       gradientUnits="userSpaceOnUse"
       gradientTransform="matrix(4.8037414e-2,-0.4413391,0.474073,5.1600295e-2,-10.507275,384.11316)"
       cx="138.58928"
       cy="334.42172"
       fx="138.58928"
       fy="334.42172"
       r="29.364538" />
    <radialGradient
       inkscape:collect="always"
       xlink:href="#linearGradient3853"
       id="radialGradient3897"
       gradientUnits="userSpaceOnUse"
       gradientTransform="matrix(5.0372302e-2,-0.3497757,0.3566224,5.1358303e-2,23.46894,370.05846)"
       cx="154.26961"
       cy="292.34778"
       fx="154.26961"
       fy="292.34778"
       r="29.364538" />
  </defs>
  <sodipodi:namedview
     id="base"
     pagecolor="#ffffff"
     bordercolor="#666666"
     borderopacity="1.0"
     inkscape:pageopacity="0.0"
     inkscape:pageshadow="2"
     inkscape:zoom="3.6097347"
     inkscape:cx="42.904775"
     inkscape:cy="74.550001"
     inkscape:document-units="px"
     inkscape:current-layer="layer1"
     showgrid="false"
     showguides="true"
     inkscape:guide-bbox="true"
     inkscape:window-width="1272"
     inkscape:window-height="734"
     inkscape:window-x="0"
     inkscape:window-y="40" />
  <metadata
     id="metadata2765">
    <rdf:RDF>
      <cc:Work
         rdf:about="">
        <dc:format>image/svg+xml</dc:format>
        <dc:type
           rdf:resource="http://purl.org/dc/dcmitype/StillImage" />
      </cc:Work>
    </rdf:RDF>
  </metadata>
  <g
     inkscape:label="Calque 1"
     inkscape:groupmode="layer"
     id="layer1"
     transform="translate(-275.33361,-209.6926)">
    <g
       id="lay1"
       transform="translate(169.43274,157.50903)"
       inkscape:export-xdpi="90"
       inkscape:export-ydpi="90">
      <path
         style="fill:url(#radialGradient3835);fill-opacity:1"
         d="M 141.64285,200.86218 C 141.64285,200.31218 140.85535,199.8605 139.89285,199.85844 C 135.01125,199.84801 120.64285,186.81512 120.64285,182.39768 C 120.64285,181.06807 120.22747,179.7235 119.71979,179.40973 C 117.69162,178.15626 117.48611,172.84519 119.31248,168.88382 C 121.25766,164.66476 123.76836,163.78862 127.77251,165.93157 C 129.23212,166.71273 130.16384,166.67469 131.2293,165.79043 C 132.50543,164.73134 132.49743,164.28918 131.16538,162.25622 C 128.34987,157.95921 129.44234,155.1427 134.9995,152.3714 C 136.93763,151.40488 137.11069,150.63516 136.80694,144.33236 C 136.62218,140.49876 136.05968,136.93468 135.55694,136.41218 C 134.27089,135.07561 134.41935,128.44681 135.80336,125.40924 C 137.28331,122.16111 139.64285,122.09592 139.64285,125.30317 C 139.64285,128.69982 141.21023,129.31792 143.07443,126.65641 C 144.35975,124.82135 144.64285,121.12656 144.64285,106.18673 C 144.64285,94.481931 145.05826,87.044564 145.80336,85.409236 C 146.69124,83.460561 146.67999,82.23912 145.75549,80.210057 C 144.91309,78.361195 144.86448,77.240556 145.59498,76.510057 C 146.17131,75.933726 146.64285,74.427183 146.64285,73.162183 C 146.64285,71.897183 147.00285,70.862183 147.44285,70.862183 C 149.32352,70.862183 150.64285,73.54573 150.64285,77.371053 C 150.64285,79.630932 151.30354,82.353432 152.11105,83.421053 C 153.30525,84.999935 154.20154,89.859222 153.61105,109.41218 C 152.72544,138.73769 153.52953,137.75579 157.68786,135.86218 C 160.73366,134.47519 162.64285,139.19545 162.64285,146.13191 C 162.64285,149.76864 162.19285,153.02226 161.64285,153.36218 C 160.25252,154.22145 160.38915,159.20848 161.84285,160.66218 C 162.50285,161.32218 163.78311,161.86218 164.68786,161.86218 C 166.8188,161.86218 169.64285,165.00126 169.64285,167.36992 C 169.64285,168.38757 169.11435,170.68173 168.4684,172.46807 C 167.4072,175.40277 167.55184,176.05408 169.9684,179.22235 C 171.43935,181.15086 172.64285,183.47683 172.64285,184.39117 C 172.64285,188.51122 163.73294,199.86218 160.49892,199.86218 C 159.543,199.86218 158.48277,200.31218 158.14285,200.86218 C 157.80293,201.41218 153.95137,201.86218 149.58383,201.86218 C 144.95651,201.86218 141.64285,201.44489 141.64285,200.86218 z M 120.64285,121.86218 C 120.64285,120.52885 121.30952,119.86218 122.64285,119.86218 C 123.97618,119.86218 124.64285,120.52885 124.64285,121.86218 C 124.64285,123.19552 123.97618,123.86218 122.64285,123.86218 C 121.30952,123.86218 120.64285,123.19552 120.64285,121.86218 z M 165.64285,107.86218 C 165.64285,106.52885 166.30952,105.86218 167.64285,105.86218 C 168.97618,105.86218 169.64285,106.52885 169.64285,107.86218 C 169.64285,109.19552 168.97618,109.86218 167.64285,109.86218 C 166.30952,109.86218 165.64285,109.19552 165.64285,107.86218 z M 129.86055,95.707686 C 130.10697,94.96766 131.11062,94.206706 132.09088,94.01668 C 133.2309,93.795685 133.71173,94.156053 133.42515,95.01668 C 133.17873,95.756706 132.17508,96.51766 131.19482,96.707686 C 130.0548,96.928681 129.57397,96.568313 129.86055,95.707686 z"
         id="path2928"
         sodipodi:nodetypes="cssssssssssssssssssssssssssssssssssccsssccsssccsssc" />
      <path
         sodipodi:nodetypes="cssssssssssssssssssssssssssssssssssccsssccsssccsssc"
         id="path3877"
         d="M 141.64285,200.86218 C 141.64285,200.31218 140.85535,199.8605 139.89285,199.85844 C 135.01125,199.84801 120.64285,186.81512 120.64285,182.39768 C 120.64285,181.06807 120.22747,179.7235 119.71979,179.40973 C 117.69162,178.15626 117.48611,172.84519 119.31248,168.88382 C 121.25766,164.66476 123.76836,163.78862 127.77251,165.93157 C 129.23212,166.71273 130.16384,166.67469 131.2293,165.79043 C 132.50543,164.73134 132.49743,164.28918 131.16538,162.25622 C 128.34987,157.95921 129.44234,155.1427 134.9995,152.3714 C 136.93763,151.40488 137.11069,150.63516 136.80694,144.33236 C 136.62218,140.49876 136.05968,136.93468 135.55694,136.41218 C 134.27089,135.07561 134.41935,128.44681 135.80336,125.40924 C 137.28331,122.16111 139.64285,122.09592 139.64285,125.30317 C 139.64285,128.69982 141.21023,129.31792 143.07443,126.65641 C 144.35975,124.82135 144.64285,121.12656 144.64285,106.18673 C 144.64285,94.481931 145.05826,87.044564 145.80336,85.409236 C 146.69124,83.460561 146.67999,82.23912 145.75549,80.210057 C 144.91309,78.361195 144.86448,77.240556 145.59498,76.510057 C 146.17131,75.933726 146.64285,74.427183 146.64285,73.162183 C 146.64285,71.897183 147.00285,70.862183 147.44285,70.862183 C 149.32352,70.862183 150.64285,73.54573 150.64285,77.371053 C 150.64285,79.630932 151.30354,82.353432 152.11105,83.421053 C 153.30525,84.999935 154.20154,89.859222 153.61105,109.41218 C 152.72544,138.73769 153.52953,137.75579 157.68786,135.86218 C 160.73366,134.47519 162.64285,139.19545 162.64285,146.13191 C 162.64285,149.76864 162.19285,153.02226 161.64285,153.36218 C 160.25252,154.22145 160.38915,159.20848 161.84285,160.66218 C 162.50285,161.32218 163.78311,161.86218 164.68786,161.86218 C 166.8188,161.86218 169.64285,165.00126 169.64285,167.36992 C 169.64285,168.38757 169.11435,170.68173 168.4684,172.46807 C 167.4072,175.40277 167.55184,176.05408 169.9684,179.22235 C 171.43935,181.15086 172.64285,183.47683 172.64285,184.39117 C 172.64285,188.51122 163.73294,199.86218 160.49892,199.86218 C 159.543,199.86218 158.48277,200.31218 158.14285,200.86218 C 157.80293,201.41218 153.95137,201.86218 149.58383,201.86218 C 144.95651,201.86218 141.64285,201.44489 141.64285,200.86218 z M 120.64285,121.86218 C 120.64285,120.52885 121.30952,119.86218 122.64285,119.86218 C 123.97618,119.86218 124.64285,120.52885 124.64285,121.86218 C 124.64285,123.19552 123.97618,123.86218 122.64285,123.86218 C 121.30952,123.86218 120.64285,123.19552 120.64285,121.86218 z M 165.64285,107.86218 C 165.64285,106.52885 166.30952,105.86218 167.64285,105.86218 C 168.97618,105.86218 169.64285,106.52885 169.64285,107.86218 C 169.64285,109.19552 168.97618,109.86218 167.64285,109.86218 C 166.30952,109.86218 165.64285,109.19552 165.64285,107.86218 z M 129.86055,95.707686 C 130.10697,94.96766 131.11062,94.206706 132.09088,94.01668 C 133.2309,93.795685 133.71173,94.156053 133.42515,95.01668 C 133.17873,95.756706 132.17508,96.51766 131.19482,96.707686 C 130.0548,96.928681 129.57397,96.568313 129.86055,95.707686 z"
         style="fill:url(#radialGradient3879);fill-opacity:1" />
      <path
         style="fill:url(#radialGradient3883);fill-opacity:1"
         d="M 141.64285,200.86218 C 141.64285,200.31218 140.85535,199.8605 139.89285,199.85844 C 135.01125,199.84801 120.64285,186.81512 120.64285,182.39768 C 120.64285,181.06807 120.22747,179.7235 119.71979,179.40973 C 117.69162,178.15626 117.48611,172.84519 119.31248,168.88382 C 121.25766,164.66476 123.76836,163.78862 127.77251,165.93157 C 129.23212,166.71273 130.16384,166.67469 131.2293,165.79043 C 132.50543,164.73134 132.49743,164.28918 131.16538,162.25622 C 128.34987,157.95921 129.44234,155.1427 134.9995,152.3714 C 136.93763,151.40488 137.11069,150.63516 136.80694,144.33236 C 136.62218,140.49876 136.05968,136.93468 135.55694,136.41218 C 134.27089,135.07561 134.41935,128.44681 135.80336,125.40924 C 137.28331,122.16111 139.64285,122.09592 139.64285,125.30317 C 139.64285,128.69982 141.21023,129.31792 143.07443,126.65641 C 144.35975,124.82135 144.64285,121.12656 144.64285,106.18673 C 144.64285,94.481931 145.05826,87.044564 145.80336,85.409236 C 146.69124,83.460561 146.67999,82.23912 145.75549,80.210057 C 144.91309,78.361195 144.86448,77.240556 145.59498,76.510057 C 146.17131,75.933726 146.64285,74.427183 146.64285,73.162183 C 146.64285,71.897183 147.00285,70.862183 147.44285,70.862183 C 149.32352,70.862183 150.64285,73.54573 150.64285,77.371053 C 150.64285,79.630932 151.30354,82.353432 152.11105,83.421053 C 153.30525,84.999935 154.20154,89.859222 153.61105,109.41218 C 152.72544,138.73769 153.52953,137.75579 157.68786,135.86218 C 160.73366,134.47519 162.64285,139.19545 162.64285,146.13191 C 162.64285,149.76864 162.19285,153.02226 161.64285,153.36218 C 160.25252,154.22145 160.38915,159.20848 161.84285,160.66218 C 162.50285,161.32218 163.78311,161.86218 164.68786,161.86218 C 166.8188,161.86218 169.64285,165.00126 169.64285,167.36992 C 169.64285,168.38757 169.11435,170.68173 168.4684,172.46807 C 167.4072,175.40277 167.55184,176.05408 169.9684,179.22235 C 171.43935,181.15086 172.64285,183.47683 172.64285,184.39117 C 172.64285,188.51122 163.73294,199.86218 160.49892,199.86218 C 159.543,199.86218 158.48277,200.31218 158.14285,200.86218 C 157.80293,201.41218 153.95137,201.86218 149.58383,201.86218 C 144.95651,201.86218 141.64285,201.44489 141.64285,200.86218 z M 120.64285,121.86218 C 120.64285,120.52885 121.30952,119.86218 122.64285,119.86218 C 123.97618,119.86218 124.64285,120.52885 124.64285,121.86218 C 124.64285,123.19552 123.97618,123.86218 122.64285,123.86218 C 121.30952,123.86218 120.64285,123.19552 120.64285,121.86218 z M 165.64285,107.86218 C 165.64285,106.52885 166.30952,105.86218 167.64285,105.86218 C 168.97618,105.86218 169.64285,106.52885 169.64285,107.86218 C 169.64285,109.19552 168.97618,109.86218 167.64285,109.86218 C 166.30952,109.86218 165.64285,109.19552 165.64285,107.86218 z M 129.86055,95.707686 C 130.10697,94.96766 131.11062,94.206706 132.09088,94.01668 C 133.2309,93.795685 133.71173,94.156053 133.42515,95.01668 C 133.17873,95.756706 132.17508,96.51766 131.19482,96.707686 C 130.0548,96.928681 129.57397,96.568313 129.86055,95.707686 z"
         id="path3881"
         sodipodi:nodetypes="cssssssssssssssssssssssssssssssssssccsssccsssccsssc" />
      <path
         style="fill:#000000"
         d="M 141.64285,200.86218 C 141.64285,200.31218 140.85535,199.8605 139.89285,199.85844 C 135.01125,199.84801 120.64285,186.81512 120.64285,182.39768 C 120.64285,181.06807 120.22747,179.7235 119.71979,179.40973 C 117.69162,178.15626 117.48611,172.84519 119.31248,168.88382 C 121.26522,164.64835 123.76829,163.78858 127.82526,165.9598 C 129.42703,166.81705 130.21924,166.71436 131.44267,165.49093 C 132.86466,164.06894 132.8539,163.75287 131.32601,162.06457 C 128.14461,158.54916 129.43401,155.14685 134.9995,152.3714 C 136.93763,151.40488 137.11069,150.63516 136.80694,144.33236 C 136.62218,140.49876 136.05968,136.93468 135.55694,136.41218 C 134.27089,135.07561 134.41935,128.44681 135.80336,125.40924 C 137.28331,122.16111 139.64285,122.09592 139.64285,125.30317 C 139.64285,128.35852 141.03156,129.30367 142.65199,127.35117 C 144.83589,124.71973 145.64321,125.74015 145.62754,131.11218 C 145.61019,137.06151 144.99094,138.46648 142.14285,139.01837 C 140.51678,139.33346 140.16528,140.14969 140.26282,143.38405 C 140.32881,145.57202 140.95318,149.30281 141.65032,151.67468 C 142.59749,154.89721 142.63036,156.27468 141.78035,157.12468 C 140.93035,157.97468 140.33955,157.95888 139.44285,157.06218 C 137.68738,155.30671 134.85503,155.5972 133.75902,157.64511 C 133.13685,158.80764 133.20046,160.91026 133.94182,163.68776 C 134.75411,166.73103 134.77321,168.43507 134.0087,169.65484 C 132.49281,172.07342 128.82959,172.34116 126.47007,170.20581 C 124.52717,168.44751 124.41661,168.4511 123.05253,170.31658 C 118.88309,176.01864 123.55776,185.84607 133.97577,193.2802 C 140.98313,198.28056 146.88164,199.79037 154.11102,198.43413 C 158.47678,197.61511 165.39069,191.69485 167.29572,187.1443 C 169.08241,182.87645 169.09429,182.91551 165.64285,181.71234 C 161.9551,180.42678 161.70297,177.56949 164.81224,172.29966 C 167.46358,167.80597 166.48878,165.59081 161.53929,164.86218 C 158.18976,164.36909 158.14344,164.29313 158.18533,159.36218 C 158.20869,156.61218 158.85426,151.58339 159.61993,148.18708 C 161.35254,140.50172 160.30652,138.40794 155.61847,140.17749 C 150.31967,142.17756 150.14285,141.33421 150.14285,114.06099 C 150.14285,98.595117 149.76903,89.175272 149.14285,88.862183 C 147.89703,88.239273 146.91568,97.789118 146.75973,112.05317 C 146.69507,117.96752 146.19606,123.02028 145.64285,123.36218 C 144.99015,123.76557 144.64285,117.64881 144.64285,105.74994 C 144.64285,89.894564 144.86748,87.271451 146.36716,85.614322 C 147.964,83.84983 147.97258,83.501832 146.48323,80.906788 C 145.47435,79.148903 145.19871,77.593582 145.74361,76.733389 C 146.22135,75.979226 146.61911,74.349683 146.62754,73.112183 C 146.63596,71.874683 147.00285,70.862183 147.44285,70.862183 C 149.39596,70.862183 150.64285,73.619964 150.64285,77.939738 C 150.64285,80.877614 151.20073,83.080294 152.14285,83.862183 C 153.4005,84.905937 153.64285,89.013418 153.64285,109.28463 C 153.64285,134.16175 153.90165,135.86218 157.68786,135.86218 C 161.0346,135.86218 162.64285,139.19545 162.64285,146.13191 C 162.64285,149.76864 162.19285,153.02226 161.64285,153.36218 C 160.25252,154.22145 160.38915,159.20848 161.84285,160.66218 C 162.50285,161.32218 163.78311,161.86218 164.68786,161.86218 C 166.8188,161.86218 169.64285,165.00126 169.64285,167.36992 C 169.64285,168.38757 169.11435,170.68173 168.4684,172.46807 C 167.4072,175.40277 167.55184,176.05408 169.9684,179.22235 C 171.43935,181.15086 172.64285,183.47683 172.64285,184.39117 C 172.64285,188.51122 163.73294,199.86218 160.49892,199.86218 C 159.543,199.86218 158.48277,200.31218 158.14285,200.86218 C 157.80293,201.41218 153.95137,201.86218 149.58383,201.86218 C 144.95651,201.86218 141.64285,201.44489 141.64285,200.86218 z M 135.47418,185.97776 C 132.70904,183.48633 132.32995,182.66907 133.2437,181.16918 C 133.84917,180.17533 135.80376,179.21803 137.58724,179.04185 C 141.94583,178.61127 144.83806,181.2567 144.44137,185.31108 C 144.01058,189.7141 139.9556,190.01557 135.47418,185.97776 z M 141.14285,183.79254 C 141.14285,183.02091 140.35535,182.23791 139.39285,182.05255 C 137.66911,181.72059 136.95651,183.8425 138.33035,185.21635 C 139.37856,186.26455 141.14285,185.3714 141.14285,183.79254 z M 148.62508,171.82897 C 146.86409,168.53855 148.18421,164.86218 151.12672,164.86218 C 153.90518,164.86218 155.93237,167.81315 155.45564,171.16376 C 155.00912,174.30212 150.19935,174.77053 148.62508,171.82897 z M 120.64285,121.86218 C 120.64285,120.52885 121.30952,119.86218 122.64285,119.86218 C 123.97618,119.86218 124.64285,120.52885 124.64285,121.86218 C 124.64285,123.19552 123.97618,123.86218 122.64285,123.86218 C 121.30952,123.86218 120.64285,123.19552 120.64285,121.86218 z M 165.64285,107.86218 C 165.64285,106.52885 166.30952,105.86218 167.64285,105.86218 C 168.97618,105.86218 169.64285,106.52885 169.64285,107.86218 C 169.64285,109.19552 168.97618,109.86218 167.64285,109.86218 C 166.30952,109.86218 165.64285,109.19552 165.64285,107.86218 z M 129.86055,95.707686 C 130.10697,94.96766 131.11062,94.206706 132.09088,94.01668 C 133.2309,93.795685 133.71173,94.156053 133.42515,95.01668 C 133.17873,95.756706 132.17508,96.51766 131.19482,96.707686 C 130.0548,96.928681 129.57397,96.568313 129.86055,95.707686 z"
         id="path2926" />
      <path
         transform="translate(-243.82525,-147.3851)"
         style="fill:#d40000"
         d="M 386.18556,331.83729 C 386.18556,333.11872 385.14251,333.56753 383.39286,333.56753 C 381.64322,333.56753 377.83216,331.24115 379.51977,329.05052 C 380.64976,327.58371 383.22917,328.25503 384.33036,328.83538 C 385.8782,329.65114 386.18556,330.55586 386.18556,331.83729 z"
         id="path3910"
         sodipodi:nodetypes="csssc" />
      <path
         sodipodi:nodetypes="csssc"
         id="path3915"
         d="M 153.63012,169.53064 C 154.03191,170.81207 152.83512,171.71814 151.88904,171.71814 C 150.1394,171.71814 149.74619,170.49957 149.74619,169.21814 C 149.74619,167.93671 150.27333,166.89671 151.48725,166.71814 C 153.21827,166.4635 153.58548,168.74028 153.63012,169.53064 z"
         style="fill:#d40000" />
    </g>
  </g>
</svg>
