/* XPM */
static char * tuxtype_xpm[] = {
"32 32 264 2",
"  	c None",
". 	c #141414",
"+ 	c #2A2A2A",
"@ 	c #333333",
"# 	c #383838",
"$ 	c #323232",
"% 	c #232323",
"& 	c #101010",
"* 	c #202020",
"= 	c #707070",
"- 	c #BFBFBF",
"; 	c #C3C3C3",
"> 	c #A8A8A8",
", 	c #434343",
"' 	c #1A1A1A",
") 	c #090909",
"! 	c #474747",
"~ 	c #CBCBCB",
"{ 	c #E4E4E4",
"] 	c #E0E0E0",
"^ 	c #AEAEAE",
"/ 	c #929292",
"( 	c #020202",
"_ 	c #4F4F4F",
": 	c #DADADA",
"< 	c #FFFFFF",
"[ 	c #F7F7F7",
"} 	c #B5B5B5",
"| 	c #999999",
"1 	c #B0B0B0",
"2 	c #C7C7C7",
"3 	c #C1C1C1",
"4 	c #A5A5A5",
"5 	c #919191",
"6 	c #191919",
"7 	c #1F1F1F",
"8 	c #A9A9A9",
"9 	c #F9F9F9",
"0 	c #ECECEC",
"a 	c #D8D8D8",
"b 	c #888888",
"c 	c #D4D4D4",
"d 	c #EDEDED",
"e 	c #787878",
"f 	c #050505",
"g 	c #000000",
"h 	c #515151",
"i 	c #C2C2C2",
"j 	c #989898",
"k 	c #4A4A4A",
"l 	c #9F9F9F",
"m 	c #E2E2E2",
"n 	c #F0F0F0",
"o 	c #E1E1E1",
"p 	c #CFCFCF",
"q 	c #757575",
"r 	c #242424",
"s 	c #4C4C4C",
"t 	c #C4C4C4",
"u 	c #DFDFDF",
"v 	c #626262",
"w 	c #2D2D2D",
"x 	c #7B7B7B",
"y 	c #3F3F3F",
"z 	c #D2D2D2",
"A 	c #2E2E2E",
"B 	c #9A9A9A",
"C 	c #BCBCBC",
"D 	c #4B4B4B",
"E 	c #1C1C1C",
"F 	c #131313",
"G 	c #3C3C3C",
"H 	c #D2D299",
"I 	c #E0E04B",
"J 	c #E2E22F",
"K 	c #E9D827",
"L 	c #EACC45",
"M 	c #EDC175",
"N 	c #D2D2D1",
"O 	c #585858",
"P 	c #2F2F2F",
"Q 	c #010101",
"R 	c #151515",
"S 	c #3A3A3A",
"T 	c #ADADAD",
"U 	c #C5C5C5",
"V 	c #BBBBAC",
"W 	c #F2F21C",
"X 	c #FFF500",
"Y 	c #FFDD00",
"Z 	c #FFC500",
"` 	c #F2C895",
" .	c #D6D6D6",
"..	c #838383",
"+.	c #1B1B1B",
"@.	c #0D0D0D",
"#.	c #FBFBFB",
"$.	c #F6F6D2",
"%.	c #FBE711",
"&.	c #FFD100",
"*.	c #F2C068",
"=.	c #EFEFEF",
"-.	c #E7E7E7",
";.	c #161616",
">.	c #F3F3F3",
",.	c #F3EBB8",
"'.	c #F2CA44",
").	c #F0EFED",
"!.	c #D1D1D1",
"~.	c #030303",
"{.	c #080808",
"].	c #FEFEFE",
"^.	c #F6F6F6",
"/.	c #EEEEED",
"(.	c #C9C9C9",
"_.	c #828282",
":.	c #070707",
"<.	c #0F0F0F",
"[.	c #909090",
"}.	c #A1A1A1",
"|.	c #EEEEEE",
"1.	c #D0D0D0",
"2.	c #BBBBBB",
"3.	c #0B0B0B",
"4.	c #0C0C0C",
"5.	c #0A0A0A",
"6.	c #121212",
"7.	c #171717",
"8.	c #303030",
"9.	c #B4B4B4",
"0.	c #0E0E0E",
"a.	c #040404",
"b.	c #060606",
"c.	c #DDDDDD",
"d.	c #565656",
"e.	c #5B5B5B",
"f.	c #252525",
"g.	c #717171",
"h.	c #545454",
"i.	c #6B6B6B",
"j.	c #BEBEBE",
"k.	c #4D4D4D",
"l.	c #5E5E5E",
"m.	c #777777",
"n.	c #A2A2A2",
"o.	c #292929",
"p.	c #E6E6E6",
"q.	c #E3E3E3",
"r.	c #D7D7D7",
"s.	c #A6A6A6",
"t.	c #D5D5D5",
"u.	c #ABABAB",
"v.	c #727272",
"w.	c #5A5A5A",
"x.	c #9B9B9B",
"y.	c #747474",
"z.	c #282828",
"A.	c #FDFDFD",
"B.	c #E8E8E8",
"C.	c #818181",
"D.	c #454545",
"E.	c #949494",
"F.	c #8C8C8C",
"G.	c #6A6A6A",
"H.	c #A7A7A7",
"I.	c #959595",
"J.	c #8E8E8E",
"K.	c #3D3D3D",
"L.	c #797979",
"M.	c #8F8F8F",
"N.	c #C6C6C6",
"O.	c #A0A0A0",
"P.	c #8D8D8D",
"Q.	c #6C6C6C",
"R.	c #414141",
"S.	c #767676",
"T.	c #3B3B3B",
"U.	c #7E7E7E",
"V.	c #5C5C5C",
"W.	c #A4A4A4",
"X.	c #424242",
"Y.	c #808080",
"Z.	c #858585",
"`.	c #B6B6B6",
" +	c #F2F2F2",
".+	c #BABABA",
"++	c #4E4E4E",
"@+	c #CECECE",
"#+	c #E5E5E5",
"$+	c #656565",
"%+	c #8A8A8A",
"&+	c #9D9D9D",
"*+	c #BC9E69",
"=+	c #CAAC79",
"-+	c #CCB082",
";+	c #B8AE9D",
">+	c #B9B9B9",
",+	c #AFAFAF",
"'+	c #ACACAC",
")+	c #A8977D",
"!+	c #C4A46F",
"~+	c #C1A069",
"{+	c #D6AE67",
"]+	c #F8C266",
"^+	c #FDD281",
"/+	c #FEE7B9",
"(+	c #FFEDC9",
"_+	c #FFEEC9",
":+	c #FEE7BA",
"<+	c #EEC883",
"[+	c #B29669",
"}+	c #A48E66",
"|+	c #EABE6C",
"1+	c #FEE4AF",
"2+	c #FFE8B7",
"3+	c #FFE9B7",
"4+	c #FFE7B7",
"5+	c #FEDA95",
"6+	c #F5AB26",
"7+	c #FEBB01",
"8+	c #FFCA27",
"9+	c #FFD23B",
"0+	c #FFD53C",
"a+	c #FFD63C",
"b+	c #FFD33C",
"c+	c #FFD03B",
"d+	c #FFC827",
"e+	c #F2B50B",
"f+	c #8D8678",
"g+	c #7D7D7D",
"h+	c #E1AA12",
"i+	c #FFC510",
"j+	c #FFCE24",
"k+	c #FFD32B",
"l+	c #FFD52B",
"m+	c #FFCF29",
"n+	c #FFC81C",
"o+	c #FFC003",
"p+	c #FBCE00",
"q+	c #FFD300",
"r+	c #FFD900",
"s+	c #FFDF00",
"t+	c #FFE200",
"u+	c #FFE100",
"v+	c #FFD600",
"w+	c #FFCF00",
"x+	c #F5C907",
"y+	c #F8C500",
"z+	c #FFD500",
"A+	c #FFDA00",
"B+	c #FFE500",
"C+	c #FED000",
"D+	c #FEEB00",
"E+	c #FFF400",
"F+	c #FFFA00",
"G+	c #FFF600",
"H+	c #FFF200",
"I+	c #FEE900",
"J+	c #FDE500",
"K+	c #FEF000",
"L+	c #FEF700",
"M+	c #FFF800",
"N+	c #FFF000",
"O+	c #FEEA00",
"                                                                ",
"                                                                ",
"                          . + @ # $ % &                         ",
"                      * = - ; ; ; ; ; > , '                     ",
"                  ) ! ~ { ] - ^ ^ ^ ^ ^ ^ / *                   ",
"                ( _ : < < < [ } | | 1 2 3 4 5 6                 ",
"                7 8 < < < 9 0 a b c < < < d 4 e f               ",
"              g h i < < 9 0 j k l m < < n o p q r g             ",
"            g g s t < 9 0 u v w x y < n o z ; = A g             ",
"            g g @ B 9 0 u z C 4 5 n n o z ; 1 D E g g           ",
"          g g g F G : u z H I J K L M N ; ^ O P f g g           ",
"          g g g Q R S T U V W X Y Z `  ...+ +.@.g g g           ",
"          g g g g g * o 9 #.$.%.&.*.=.-.] > f g g g g           ",
"        g Q ( ( ( ;.>.< < < < ,.'.).-.] a !.T ( ( ( ( g         ",
"      g ~.{.{.{.{.m < < < < ].^./.-.] a !.(.i _.{.{.~.f g       ",
"    g :.<.<.<.<.[.< < < < }.A |.-.] a 1.(.i 2.} $ 3.g 4.@.Q     ",
"  g ( 5.5.6.7.+.#.< < < ].^.8.-.u a 1.(.i 2.9.^ | 0.3.a.a.( g   ",
"          b.* / c.d._.e.=.|.f.g.h.i.(.j.k.l.y m.n.@ 7.g         ",
"          a.o.p.q.r.].m.s.-.;.t.1.% u.v.w.^ x.q x.y.6.          ",
"          g z.A.B.m.C.D.E.u + 1.(.S F.h G.H.}.x.I.J.)           ",
"            K.< x / |.L.M.a . N.3 * O.G._ }.P.Q.5 n.Q           ",
"            e.[ i R.S.T.! U.6 w.D.V.^ W.X._ y Y.H.Z.            ",
"            `.}  +-.u a 1.(.3 .+9.^ H.}.x.E.M.s.1 ++            ",
"              B @+#+: 1.(.3 .+9.^ H.}.x.E.I.u.1 $+              ",
"                %+2 r.1.U .+9.^ H.}.x.&+W.T 8 =                 ",
"                  *+=+-+;+>+>+9.,+'+u.W.)+!+~+{+]+              ",
"            ^+/+(+_+_+(+:+<+[+8 > n.}+|+1+2+2+3+2+4+5+6+        ",
"          7+8+9+0+a+a+b+c+d+e+f+5 g+h+i+j+k+l+l+k+m+n+o+        ",
"          p+q+r+s+t+u+Y v+w+x+  Z.  y+z+A+u+B+B+u+A+q+C+        ",
"              D+E+F+G+H+I+              J+K+L+M+N+O+            ",
"                                                                ",
"                                                                "};
